<svg width="81" height="80" viewBox="0 0 81 80" fill="none" xmlns="http://www.w3.org/2000/svg">
<g filter="url(#filter0_b_2537_13777)">
<rect x="0.666748" width="80" height="80" rx="40" fill="#62CEFF" fill-opacity="0.1"/>
<path d="M47.6667 47.5C47.3067 47.5 46.9067 47.48 46.5267 47.46C45.7867 47.42 45.1868 46.82 45.1268 46.08C44.6868 40.5 40.1467 35.98 34.5867 35.54C33.8467 35.48 33.2467 34.88 33.2067 34.14C33.1867 33.76 33.1667 33.38 33.1667 33C33.1667 25 39.6667 18.5 47.6667 18.5C55.6667 18.5 62.1667 25 62.1667 33C62.1667 41 55.6667 47.5 47.6667 47.5ZM36.1667 32.72C42.1267 33.76 46.9068 38.54 47.9468 44.5C54.1668 44.34 59.1667 39.26 59.1667 33C59.1667 26.66 54.0067 21.5 47.6667 21.5C41.4267 21.5 36.3267 26.5 36.1667 32.72Z" fill="#DAA15D"/>
<path d="M33.6667 61.5C25.6667 61.5 19.1667 55 19.1667 47C19.1667 39 25.6667 32.5 33.6667 32.5C34.0267 32.5 34.4268 32.52 34.8068 32.54C41.8668 33.1 47.5868 38.82 48.1268 45.84C48.1468 46.24 48.1667 46.62 48.1667 47C48.1667 55 41.6667 61.5 33.6667 61.5ZM33.6667 35.5C27.3267 35.5 22.1667 40.66 22.1667 47C22.1667 53.34 27.3267 58.5 33.6667 58.5C40.0067 58.5 45.1667 53.34 45.1667 47C45.1667 46.68 45.1468 46.36 45.1268 46.06C44.6868 40.52 40.1667 35.98 34.5867 35.54C34.3067 35.52 33.9867 35.5 33.6667 35.5Z" fill="#DAA15D"/>
<path d="M22.6667 30.68C22.2067 30.68 21.7667 30.6 21.3267 30.42C20.0067 29.88 19.1667 28.6 19.1667 27.18V22C19.1667 20.08 20.7467 18.5 22.6667 18.5H27.8467C29.2667 18.5 30.5267 19.34 31.0867 20.66C31.6267 21.98 31.3267 23.48 30.3267 24.48L25.1467 29.66C24.4667 30.32 23.5867 30.68 22.6667 30.68ZM22.6667 21.5C22.3867 21.5 22.1667 21.72 22.1667 22V27.18C22.1667 27.48 22.3667 27.6 22.4667 27.64C22.5867 27.68 22.8068 27.74 23.0068 27.54L28.1868 22.36C28.3868 22.16 28.3467 21.94 28.2867 21.82C28.2267 21.7 28.1067 21.52 27.8267 21.52H22.6667V21.5Z" fill="#DAA15D"/>
<path d="M58.6664 61.5H53.4864C52.0664 61.5 50.8064 60.66 50.2464 59.34C49.7064 58.02 50.0064 56.52 51.0064 55.52L56.1864 50.34C57.1864 49.34 58.6864 49.04 60.0064 49.58C61.3264 50.12 62.1664 51.4 62.1664 52.82V58C62.1664 59.92 60.5864 61.5 58.6664 61.5ZM58.6464 52.32C58.5464 52.32 58.4264 52.36 58.3064 52.48L53.1264 57.66C52.9264 57.86 52.9664 58.08 53.0264 58.2C53.0864 58.32 53.2064 58.5 53.4864 58.5H58.6664C58.9464 58.5 59.1664 58.28 59.1664 58V52.82C59.1664 52.52 58.9664 52.4 58.8664 52.36C58.8064 52.34 58.7264 52.32 58.6464 52.32Z" fill="#DAA15D"/>
</g>
<defs>
<filter id="filter0_b_2537_13777" x="-19.3333" y="-20" width="120" height="120" filterUnits="userSpaceOnUse" color-interpolation-filters="sRGB">
<feFlood flood-opacity="0" result="BackgroundImageFix"/>
<feGaussianBlur in="BackgroundImageFix" stdDeviation="10"/>
<feComposite in2="SourceAlpha" operator="in" result="effect1_backgroundBlur_2537_13777"/>
<feBlend mode="normal" in="SourceGraphic" in2="effect1_backgroundBlur_2537_13777" result="shape"/>
</filter>
</defs>
</svg>
