<svg width="135" height="40" viewBox="0 0 135 40" fill="none" xmlns="http://www.w3.org/2000/svg">
<path d="M124.249 0.00013H10.7566C10.3429 0.00013 9.9342 0.00013 9.5216 0.00213C9.17621 0.00413 8.83358 0.00994 8.48488 0.01483C7.72733 0.0227318 6.97157 0.0818063 6.22416 0.19154C5.4778 0.303663 4.75482 0.515046 4.07967 0.81854C3.40534 1.1246 2.7892 1.5223 2.25357 1.9972C1.71514 2.47077 1.26632 3.01815 0.924356 3.61829C0.581453 4.21724 0.343683 4.85907 0.219258 5.52161C0.0936495 6.18332 0.0260586 6.85265 0.0170916 7.52361C0.00662229 7.83021 0.00551669 8.13783 0 8.44447V31.5587C0.00551669 31.8692 0.00662229 32.17 0.0170916 32.4806C0.0260614 33.1516 0.0936522 33.8209 0.219258 34.4825C0.343339 35.1455 0.581124 35.7877 0.924356 36.3868C1.26616 36.985 1.71505 37.5302 2.25357 38.0011C2.78717 38.4781 3.40371 38.8761 4.07967 39.1798C4.75481 39.4841 5.47772 39.6968 6.22416 39.8106C6.9717 39.9195 7.72738 39.9786 8.48488 39.9874C8.83358 39.9942 9.17621 39.9981 9.5216 39.9981C9.93419 40.0001 10.343 40.0001 10.7566 40.0001H124.249C124.655 40.0001 125.067 40.0001 125.472 39.9981C125.816 39.9981 126.169 39.9942 126.512 39.9874C127.268 39.9791 128.023 39.92 128.769 39.8106C129.518 39.696 130.243 39.4834 130.921 39.1798C131.597 38.8759 132.213 38.478 132.746 38.0011C133.283 37.5284 133.733 36.9836 134.079 36.3868C134.42 35.7872 134.655 35.1451 134.777 34.4825C134.903 33.8208 134.973 33.1516 134.987 32.4806C134.991 32.17 134.991 31.8692 134.991 31.5587C135 31.1954 135 30.8341 135 30.4649V9.53626C135 9.17005 135 8.80677 134.991 8.44447C134.991 8.13783 134.991 7.83021 134.987 7.52357C134.973 6.85255 134.903 6.18337 134.777 5.52157C134.655 4.85941 134.419 4.21763 134.079 3.61825C133.383 2.41533 132.278 1.43616 130.921 0.81845C130.243 0.515697 129.518 0.30437 128.769 0.19145C128.023 0.0812328 127.269 0.0221378 126.512 0.01469C126.169 0.00981 125.816 0.00395 125.472 0.002C125.067 0 124.655 0 124.249 0V0.00013Z" fill="#A6A6A6"/>
<path d="M9.43001 39.1281C9.08569 39.1281 8.74969 39.1242 8.40807 39.1174C7.70037 39.1093 6.99433 39.0547 6.29574 38.9543C5.64433 38.855 5.0133 38.6703 4.42345 38.4063C3.839 38.1444 3.30594 37.8011 2.84469 37.3895C2.37676 36.9826 1.98718 36.5108 1.6914 35.9927C1.39236 35.4711 1.18541 34.9121 1.07775 34.3351C0.961494 33.7151 0.898592 33.0882 0.889592 32.4597C0.882427 32.2488 0.873047 31.5464 0.873047 31.5464V8.44104C0.873047 8.44104 0.883037 7.74949 0.889648 7.54631C0.898266 6.91886 0.960802 6.2929 1.07671 5.67385C1.18457 5.09525 1.39168 4.53463 1.69088 4.0114C1.98557 3.49361 2.37299 3.02143 2.8381 2.61316C3.30269 2.20102 3.83745 1.85593 4.42289 1.59048C5.01139 1.32731 5.64123 1.14391 6.29132 1.04642C6.99221 0.944969 7.7007 0.890117 8.41085 0.88233L9.43056 0.870117H125.57L126.602 0.88282C127.306 0.890221 128.008 0.944583 128.702 1.04544C129.359 1.14415 129.995 1.32883 130.59 1.59341C131.763 2.12837 132.718 2.97472 133.32 4.01384C133.614 4.53346 133.818 5.08951 133.924 5.66311C134.042 6.28724 134.107 6.91812 134.121 7.55071C134.124 7.83397 134.124 8.13824 134.124 8.44104C134.133 8.81612 134.133 9.17312 134.133 9.53306V30.4661C134.133 30.8295 134.133 31.1841 134.124 31.5415C134.124 31.8668 134.124 32.1648 134.12 32.4714C134.107 33.0927 134.042 33.7123 133.927 34.3253C133.821 34.9065 133.615 35.4699 133.316 35.9957C133.018 36.5082 132.631 36.9759 132.169 37.3817C131.707 37.7955 131.173 38.1409 130.587 38.4044C129.994 38.6704 129.358 38.8558 128.702 38.9543C128.004 39.0553 127.297 39.1098 126.59 39.1174C126.259 39.1242 125.912 39.1281 125.576 39.1281L124.35 39.1301L9.43001 39.1281Z" fill="#0A1419"/>
<path d="M32.7973 20.3008C32.8081 19.4662 33.0298 18.6478 33.4418 17.9218C33.8538 17.1959 34.4428 16.5859 35.1539 16.1488C34.7021 15.5036 34.1062 14.9727 33.4134 14.5981C32.7205 14.2236 31.9499 14.0157 31.1627 13.9911C29.4835 13.8148 27.8555 14.9959 26.9998 14.9959C26.1275 14.9959 24.81 14.0086 23.3913 14.0378C22.4736 14.0674 21.5793 14.3343 20.7954 14.8123C20.0115 15.2904 19.3649 15.9633 18.9184 16.7656C16.9844 20.1141 18.427 25.0351 20.2796 27.7417C21.2065 29.0671 22.2898 30.5475 23.7072 30.495C25.0943 30.4375 25.6123 29.6105 27.2866 29.6105C28.9454 29.6105 29.4314 30.495 30.8776 30.4616C32.366 30.4375 33.3038 29.1304 34.1981 27.7925C34.8641 26.8481 35.3766 25.8044 35.7166 24.7C34.8518 24.3343 34.1139 23.7221 33.5948 22.9398C33.0757 22.1575 32.7983 21.2397 32.7973 20.3008Z" fill="white"/>
<path d="M30.0656 12.2108C30.8772 11.2366 31.277 9.98445 31.1802 8.72021C29.9403 8.85044 28.7951 9.44299 27.9726 10.3798C27.5704 10.8375 27.2624 11.3699 27.0662 11.9467C26.87 12.5235 26.7893 13.1333 26.8289 13.7412C27.449 13.7476 28.0625 13.6132 28.6232 13.3481C29.1838 13.083 29.6771 12.6942 30.0656 12.2108Z" fill="white"/>
<path d="M50.3308 27.1397H45.5974L44.4607 30.4961H42.4558L46.9392 18.0781H49.0222L53.5056 30.4961H51.4665L50.3308 27.1397ZM46.0876 25.5908H49.8396L47.99 20.1436H47.9383L46.0876 25.5908Z" fill="white"/>
<path d="M63.1883 25.9699C63.1883 28.7834 61.6824 30.591 59.4099 30.591C58.8343 30.6211 58.2618 30.4885 57.758 30.2084C57.2542 29.9283 56.8395 29.5119 56.5613 29.007H56.5183V33.4914H54.6599V21.4426H56.4588V22.9485H56.493C56.7839 22.446 57.2056 22.0318 57.7133 21.7499C58.2209 21.4681 58.7954 21.3291 59.3758 21.3479C61.6736 21.3479 63.1883 23.1643 63.1883 25.9699ZM61.2781 25.9699C61.2781 24.1369 60.3308 22.9319 58.8855 22.9319C57.4656 22.9319 56.5105 24.1623 56.5105 25.9699C56.5105 27.7942 57.4656 29.0158 58.8855 29.0158C60.3308 29.0158 61.2781 27.8196 61.2781 25.9699Z" fill="white"/>
<path d="M73.1531 25.9699C73.1531 28.7834 71.6472 30.591 69.3748 30.591C68.7991 30.6211 68.2266 30.4885 67.7228 30.2084C67.219 29.9283 66.8043 29.5119 66.5262 29.007H66.4832V33.4914H64.6248V21.4426H66.4236V22.9484H66.4578C66.7487 22.446 67.1704 22.0318 67.6781 21.7499C68.1857 21.4681 68.7603 21.3291 69.3406 21.3479C71.6385 21.3479 73.1531 23.1643 73.1531 25.9699ZM71.2429 25.9699C71.2429 24.1369 70.2957 22.9318 68.8504 22.9318C67.4304 22.9318 66.4754 24.1623 66.4754 25.9699C66.4754 27.7942 67.4304 29.0158 68.8504 29.0158C70.2957 29.0158 71.243 27.8195 71.243 25.9699H71.2429Z" fill="white"/>
<path d="M79.739 27.0362C79.8767 28.2676 81.073 29.0762 82.7078 29.0762C84.2742 29.0762 85.4012 28.2676 85.4012 27.1572C85.4012 26.1934 84.7215 25.6162 83.1121 25.2207L81.5027 24.833C79.2225 24.2822 78.1638 23.2158 78.1638 21.4854C78.1638 19.3428 80.031 17.8711 82.6824 17.8711C85.3064 17.8711 87.1053 19.3428 87.1658 21.4854H85.2898C85.1775 20.2461 84.1531 19.4981 82.656 19.4981C81.1589 19.4981 80.1345 20.2549 80.1345 21.3565C80.1345 22.2344 80.7888 22.751 82.3894 23.1465L83.7576 23.4824C86.3054 24.0849 87.364 25.1084 87.364 26.9248C87.364 29.248 85.5134 30.7031 82.5701 30.7031C79.8162 30.7031 77.9568 29.2822 77.8367 27.0361L79.739 27.0362Z" fill="white"/>
<path d="M91.3747 19.2998V21.4424H93.0964V22.9141H91.3747V27.9053C91.3747 28.6807 91.7195 29.042 92.4763 29.042C92.6807 29.0384 92.8848 29.0241 93.0876 28.999V30.4619C92.7474 30.5255 92.4015 30.5543 92.0554 30.5478C90.2224 30.5478 89.5076 29.8593 89.5076 28.1035V22.9141H88.1912V21.4424H89.5075V19.2998H91.3747Z" fill="white"/>
<path d="M94.0935 25.9697C94.0935 23.1211 95.7712 21.3311 98.3875 21.3311C101.012 21.3311 102.682 23.1211 102.682 25.9697C102.682 28.8262 101.021 30.6084 98.3875 30.6084C95.7546 30.6084 94.0935 28.8262 94.0935 25.9697ZM100.789 25.9697C100.789 24.0156 99.8933 22.8623 98.3874 22.8623C96.8816 22.8623 95.9871 24.0244 95.9871 25.9697C95.9871 27.9316 96.8816 29.0762 98.3874 29.0762C99.8933 29.0762 100.789 27.9316 100.789 25.9697H100.789Z" fill="white"/>
<path d="M104.215 21.4425H105.987V22.9835H106.03C106.15 22.5022 106.432 22.0769 106.829 21.779C107.225 21.4811 107.712 21.3288 108.208 21.3478C108.422 21.347 108.636 21.3703 108.845 21.4171V23.1554C108.574 23.0728 108.292 23.0348 108.01 23.0431C107.74 23.0321 107.47 23.0797 107.221 23.1826C106.971 23.2855 106.746 23.4412 106.562 23.6391C106.378 23.837 106.239 24.0724 106.155 24.3291C106.07 24.5857 106.042 24.8576 106.073 25.1261V30.4962H104.215L104.215 21.4425Z" fill="white"/>
<path d="M117.413 27.8369C117.163 29.4805 115.562 30.6084 113.514 30.6084C110.881 30.6084 109.246 28.8437 109.246 26.0127C109.246 23.1729 110.889 21.3311 113.436 21.3311C115.941 21.3311 117.516 23.0518 117.516 25.7969V26.4336H111.122V26.5459C111.092 26.8791 111.134 27.2148 111.244 27.5306C111.354 27.8464 111.531 28.1352 111.761 28.3778C111.991 28.6203 112.271 28.8111 112.58 28.9374C112.89 29.0637 113.223 29.1226 113.557 29.1103C113.997 29.1515 114.437 29.0498 114.814 28.8203C115.191 28.5909 115.483 28.246 115.648 27.8369L117.413 27.8369ZM111.131 25.1348H115.657C115.674 24.8352 115.628 24.5354 115.524 24.2541C115.419 23.9729 115.257 23.7164 115.049 23.5006C114.84 23.2849 114.589 23.1145 114.312 23.0003C114.034 22.8861 113.736 22.8305 113.436 22.8369C113.134 22.8351 112.834 22.8933 112.554 23.008C112.274 23.1227 112.019 23.2918 111.805 23.5054C111.59 23.7191 111.42 23.973 111.305 24.2527C111.189 24.5323 111.13 24.8321 111.131 25.1348V25.1348Z" fill="white"/>
<path d="M45.8547 8.73089C46.2443 8.70293 46.6353 8.76179 46.9994 8.90323C47.3635 9.04466 47.6917 9.26514 47.9603 9.54876C48.2289 9.83239 48.4312 10.1721 48.5526 10.5434C48.674 10.9146 48.7115 11.3082 48.6623 11.6957C48.6623 13.602 47.6321 14.6977 45.8547 14.6977H43.6995V8.73089H45.8547ZM44.6262 13.8539H45.7512C46.0296 13.8705 46.3082 13.8249 46.5668 13.7203C46.8253 13.6157 47.0573 13.4547 47.2458 13.2491C47.4343 13.0436 47.5745 12.7986 47.6564 12.532C47.7383 12.2653 47.7596 11.9838 47.719 11.7079C47.7567 11.4331 47.7331 11.1533 47.65 10.8886C47.5669 10.624 47.4263 10.381 47.2382 10.177C47.0501 9.9731 46.8193 9.81329 46.5622 9.70905C46.3051 9.60481 46.0282 9.55873 45.7512 9.5741H44.6262V13.8539Z" fill="white"/>
<path d="M49.7093 12.4443C49.681 12.1484 49.7148 11.8498 49.8086 11.5677C49.9025 11.2857 50.0542 11.0263 50.2542 10.8063C50.4541 10.5864 50.6978 10.4106 50.9697 10.2903C51.2415 10.17 51.5355 10.1079 51.8328 10.1079C52.1301 10.1079 52.4241 10.17 52.6959 10.2903C52.9678 10.4106 53.2115 10.5864 53.4114 10.8063C53.6114 11.0263 53.7631 11.2857 53.857 11.5677C53.9508 11.8498 53.9846 12.1484 53.9563 12.4443C53.9852 12.7405 53.9517 13.0395 53.8581 13.322C53.7645 13.6045 53.6129 13.8644 53.4129 14.0848C53.2129 14.3052 52.969 14.4813 52.6969 14.6019C52.4248 14.7224 52.1304 14.7847 51.8328 14.7847C51.5352 14.7847 51.2408 14.7224 50.9687 14.6019C50.6966 14.4813 50.4527 14.3052 50.2527 14.0848C50.0527 13.8644 49.9011 13.6045 49.8075 13.322C49.7139 13.0395 49.6804 12.7405 49.7093 12.4443ZM53.0423 12.4443C53.0423 11.4682 52.6038 10.8974 51.8343 10.8974C51.0618 10.8974 50.6273 11.4682 50.6273 12.4443C50.6273 13.4282 51.0618 13.9946 51.8343 13.9946C52.6038 13.9946 53.0423 13.4243 53.0423 12.4443H53.0423Z" fill="white"/>
<path d="M59.6018 14.6978H58.6799L57.7493 11.3813H57.679L56.7522 14.6978H55.8391L54.5979 10.1948H55.4993L56.3059 13.6308H56.3723L57.2981 10.1948H58.1506L59.0764 13.6308H59.1467L59.9495 10.1948H60.8381L59.6018 14.6978Z" fill="white"/>
<path d="M61.8821 10.1949H62.7375V10.9102H62.804C62.9166 10.6533 63.1066 10.4379 63.3475 10.2941C63.5884 10.1503 63.8681 10.0852 64.1477 10.1079C64.3668 10.0915 64.5868 10.1245 64.7914 10.2046C64.996 10.2847 65.18 10.4098 65.3296 10.5707C65.4793 10.7315 65.5909 10.924 65.6561 11.1338C65.7213 11.3436 65.7385 11.5654 65.7063 11.7827V14.6977H64.8176V12.0059C64.8176 11.2823 64.5032 10.9224 63.846 10.9224C63.6972 10.9155 63.5487 10.9408 63.4106 10.9966C63.2726 11.0525 63.1482 11.1375 63.0461 11.2459C62.944 11.3543 62.8665 11.4834 62.819 11.6246C62.7714 11.7657 62.755 11.9154 62.7707 12.0635V14.6978H61.8821L61.8821 10.1949Z" fill="white"/>
<path d="M67.1223 8.43701H68.011V14.6978H67.1223V8.43701Z" fill="white"/>
<path d="M69.2463 12.4444C69.2181 12.1484 69.2519 11.8499 69.3458 11.5678C69.4397 11.2857 69.5914 11.0263 69.7914 10.8064C69.9914 10.5864 70.2351 10.4106 70.507 10.2903C70.7788 10.17 71.0728 10.1079 71.3701 10.1079C71.6674 10.1079 71.9614 10.17 72.2333 10.2903C72.5052 10.4106 72.7489 10.5864 72.9489 10.8064C73.1488 11.0263 73.3006 11.2857 73.3945 11.5678C73.4883 11.8499 73.5222 12.1484 73.4939 12.4444C73.5227 12.7406 73.4892 13.0396 73.3956 13.3221C73.302 13.6046 73.1503 13.8645 72.9503 14.0849C72.7503 14.3053 72.5064 14.4814 72.2342 14.6019C71.9621 14.7225 71.6678 14.7847 71.3701 14.7847C71.0725 14.7847 70.7782 14.7225 70.506 14.6019C70.2339 14.4814 69.99 14.3053 69.79 14.0849C69.59 13.8645 69.4383 13.6046 69.3446 13.3221C69.251 13.0396 69.2175 12.7406 69.2463 12.4444ZM72.5793 12.4444C72.5793 11.4683 72.1409 10.8975 71.3713 10.8975C70.5989 10.8975 70.1644 11.4683 70.1644 12.4444C70.1644 13.4283 70.5989 13.9947 71.3713 13.9947C72.1409 13.9947 72.5794 13.4244 72.5794 12.4444H72.5793Z" fill="white"/>
<path d="M74.4294 13.4243C74.4294 12.6138 75.033 12.1465 76.1042 12.0801L77.324 12.0098V11.6211C77.324 11.1455 77.0095 10.877 76.4021 10.877C75.906 10.877 75.5623 11.0591 75.4636 11.3774H74.6033C74.6941 10.604 75.4216 10.1079 76.4431 10.1079C77.572 10.1079 78.2087 10.6699 78.2087 11.6211V14.6978H77.3533V14.0649H77.283C77.1402 14.2919 76.9398 14.477 76.7022 14.6012C76.4646 14.7254 76.1983 14.7843 75.9304 14.7719C75.7414 14.7916 75.5503 14.7714 75.3696 14.7127C75.1888 14.654 75.0224 14.5581 74.8809 14.4311C74.7395 14.3042 74.6263 14.149 74.5485 13.9756C74.4708 13.8021 74.4302 13.6144 74.4294 13.4243ZM77.324 13.0395V12.6631L76.2244 12.7334C75.6042 12.7749 75.323 12.9858 75.323 13.3828C75.323 13.7881 75.6745 14.0239 76.158 14.0239C76.2996 14.0382 76.4427 14.0239 76.5787 13.9819C76.7147 13.9398 76.8409 13.8707 76.9497 13.7789C77.0584 13.6871 77.1476 13.5743 77.212 13.4473C77.2763 13.3202 77.3144 13.1816 77.324 13.0395Z" fill="white"/>
<path d="M79.3767 12.4444C79.3767 11.0215 80.1082 10.1201 81.2458 10.1201C81.5273 10.1072 81.8066 10.1746 82.0511 10.3145C82.2956 10.4544 82.4953 10.661 82.6267 10.9101H82.6931V8.43701H83.5818V14.6978H82.7302V13.9863H82.6599C82.5183 14.2338 82.3117 14.4378 82.0624 14.5763C81.8132 14.7148 81.5308 14.7825 81.2459 14.772C80.1003 14.772 79.3767 13.8706 79.3767 12.4444ZM80.2947 12.4444C80.2947 13.3994 80.7449 13.9741 81.4978 13.9741C82.2468 13.9741 82.7097 13.3911 82.7097 12.4483C82.7097 11.5098 82.242 10.9185 81.4978 10.9185C80.7498 10.9185 80.2947 11.4971 80.2947 12.4444H80.2947Z" fill="white"/>
<path d="M87.2586 12.4443C87.2303 12.1484 87.2641 11.8498 87.358 11.5677C87.4518 11.2857 87.6036 11.0263 87.8035 10.8063C88.0034 10.5864 88.2472 10.4106 88.519 10.2903C88.7909 10.17 89.0848 10.1079 89.3821 10.1079C89.6794 10.1079 89.9734 10.17 90.2452 10.2903C90.5171 10.4106 90.7608 10.5864 90.9607 10.8063C91.1607 11.0263 91.3124 11.2857 91.4063 11.5677C91.5001 11.8498 91.534 12.1484 91.5057 12.4443C91.5345 12.7405 91.501 13.0395 91.4075 13.322C91.3139 13.6045 91.1622 13.8644 90.9622 14.0848C90.7622 14.3052 90.5183 14.4813 90.2462 14.6019C89.9741 14.7224 89.6797 14.7847 89.3821 14.7847C89.0845 14.7847 88.7902 14.7224 88.518 14.6019C88.2459 14.4813 88.002 14.3052 87.802 14.0848C87.602 13.8644 87.4504 13.6045 87.3568 13.322C87.2632 13.0395 87.2297 12.7405 87.2586 12.4443ZM90.5916 12.4443C90.5916 11.4682 90.1531 10.8974 89.3836 10.8974C88.6111 10.8974 88.1766 11.4682 88.1766 12.4443C88.1766 13.4282 88.6112 13.9946 89.3836 13.9946C90.1531 13.9946 90.5916 13.4243 90.5916 12.4443Z" fill="white"/>
<path d="M92.698 10.1949H93.5535V10.9102H93.6199C93.7325 10.6533 93.9225 10.4379 94.1634 10.2941C94.4043 10.1503 94.684 10.0852 94.9636 10.1079C95.1827 10.0915 95.4027 10.1245 95.6073 10.2046C95.8119 10.2847 95.9959 10.4098 96.1456 10.5707C96.2952 10.7315 96.4068 10.924 96.472 11.1338C96.5372 11.3436 96.5544 11.5654 96.5222 11.7827V14.6977H95.6336V12.0059C95.6336 11.2823 95.3191 10.9224 94.6619 10.9224C94.5131 10.9155 94.3646 10.9408 94.2266 10.9966C94.0885 11.0525 93.9641 11.1375 93.862 11.2459C93.7599 11.3543 93.6824 11.4834 93.6349 11.6246C93.5874 11.7657 93.5709 11.9154 93.5867 12.0635V14.6978H92.698V10.1949Z" fill="white"/>
<path d="M101.544 9.07373V10.2153H102.519V10.9639H101.544V13.2793C101.544 13.751 101.738 13.9575 102.18 13.9575C102.294 13.9572 102.407 13.9503 102.519 13.937V14.6772C102.36 14.7058 102.198 14.721 102.036 14.7226C101.048 14.7226 100.654 14.375 100.654 13.5068V10.9638H99.9392V10.2153H100.654V9.07373H101.544Z" fill="white"/>
<path d="M103.733 8.43701H104.614V10.9185H104.684C104.802 10.6591 104.998 10.4425 105.243 10.2982C105.489 10.1539 105.773 10.0888 106.057 10.1118C106.275 10.1 106.493 10.1364 106.695 10.2184C106.898 10.3004 107.079 10.4261 107.228 10.5864C107.376 10.7468 107.487 10.9378 107.552 11.146C107.618 11.3541 107.637 11.5742 107.608 11.7905V14.6978H106.719V12.0098C106.719 11.2905 106.384 10.9263 105.756 10.9263C105.603 10.9137 105.449 10.9347 105.306 10.9878C105.162 11.0408 105.031 11.1247 104.923 11.2334C104.815 11.3421 104.732 11.4732 104.68 11.6173C104.628 11.7614 104.608 11.9152 104.622 12.0679V14.6977H103.733L103.733 8.43701Z" fill="white"/>
<path d="M112.79 13.482C112.669 13.8935 112.407 14.2495 112.051 14.4877C111.694 14.7258 111.265 14.831 110.839 14.7847C110.542 14.7926 110.247 14.7357 109.975 14.6182C109.702 14.5007 109.458 14.3253 109.26 14.1041C109.063 13.883 108.915 13.6214 108.828 13.3376C108.742 13.0538 108.718 12.7545 108.758 12.4605C108.719 12.1656 108.743 11.8657 108.83 11.581C108.916 11.2964 109.063 11.0336 109.26 10.8105C109.457 10.5874 109.699 10.4093 109.971 10.2881C110.243 10.1669 110.537 10.1054 110.835 10.108C112.088 10.108 112.843 10.964 112.843 12.378V12.6881H109.664V12.7379C109.65 12.9031 109.671 13.0695 109.725 13.2262C109.779 13.383 109.865 13.5267 109.978 13.6481C110.091 13.7696 110.228 13.8661 110.38 13.9315C110.533 13.9969 110.697 14.0297 110.863 14.0279C111.076 14.0534 111.291 14.0151 111.482 13.9179C111.672 13.8207 111.83 13.669 111.934 13.482L112.79 13.482ZM109.664 12.0308H111.938C111.949 11.8797 111.929 11.7279 111.878 11.5852C111.827 11.4425 111.747 11.312 111.642 11.2021C111.538 11.0923 111.412 11.0055 111.272 10.9473C111.132 10.8891 110.981 10.8609 110.83 10.8643C110.676 10.8624 110.523 10.8913 110.381 10.9492C110.239 11.0072 110.109 11.093 110.001 11.2017C109.892 11.3104 109.806 11.4398 109.748 11.5822C109.691 11.7246 109.662 11.8771 109.664 12.0308H109.664Z" fill="white"/>
</svg>
