<svg width="61" height="40" viewBox="0 0 61 40" fill="none" xmlns="http://www.w3.org/2000/svg">
<path d="M20.9698 16.3511C20.9698 16.8999 21.0291 17.3448 21.1329 17.6711C21.2516 17.9974 21.3999 18.3533 21.6076 18.7389C21.6817 18.8576 21.7114 18.9762 21.7114 19.0801C21.7114 19.2284 21.6224 19.3767 21.4296 19.525L20.4952 20.1479C20.3617 20.2369 20.2282 20.2814 20.1096 20.2814C19.9613 20.2814 19.813 20.2072 19.6647 20.0737C19.457 19.8513 19.279 19.614 19.1307 19.3767C18.9824 19.1245 18.8341 18.8428 18.671 18.5016C17.5141 19.8661 16.0606 20.5484 14.3106 20.5484C13.0647 20.5484 12.071 20.1924 11.3443 19.4805C10.6176 18.7686 10.2468 17.8194 10.2468 16.6329C10.2468 15.3722 10.6917 14.3489 11.5964 13.5776C12.5011 12.8064 13.7025 12.4208 15.2301 12.4208C15.7344 12.4208 16.2535 12.4653 16.8022 12.5395C17.351 12.6136 17.9146 12.7323 18.5078 12.8657V11.7831C18.5078 10.6559 18.2705 9.86982 17.8107 9.41005C17.3361 8.95028 16.5352 8.72781 15.3932 8.72781C14.8741 8.72781 14.3402 8.78713 13.7915 8.92062C13.2427 9.0541 12.7088 9.21724 12.1897 9.42488C11.9524 9.5287 11.7744 9.58802 11.6706 9.61769C11.5668 9.64735 11.4926 9.66218 11.4333 9.66218C11.2256 9.66218 11.1218 9.51387 11.1218 9.20241V8.47568C11.1218 8.23838 11.1515 8.0604 11.2256 7.95658C11.2998 7.85276 11.4333 7.74894 11.6409 7.64513C12.16 7.37816 12.7829 7.15569 13.5097 6.97772C14.2364 6.78491 15.0076 6.69592 15.8233 6.69592C17.5883 6.69592 18.8786 7.09637 19.7091 7.89726C20.5249 8.69815 20.9401 9.91431 20.9401 11.5458V16.3511H20.9698ZM14.9483 18.6055C15.4377 18.6055 15.942 18.5165 16.4759 18.3385C17.0099 18.1605 17.4845 17.8342 17.8849 17.3893C18.1222 17.1075 18.3002 16.796 18.3892 16.4401C18.4781 16.0841 18.5375 15.654 18.5375 15.1498V14.5268C18.1074 14.423 17.6476 14.334 17.173 14.2747C16.6984 14.2154 16.2386 14.1857 15.7789 14.1857C14.7852 14.1857 14.0584 14.3785 13.569 14.779C13.0796 15.1794 12.8423 15.743 12.8423 16.4846C12.8423 17.1816 13.0202 17.7007 13.391 18.0567C13.747 18.4275 14.2661 18.6055 14.9483 18.6055ZM26.8578 20.2072C26.5909 20.2072 26.4129 20.1627 26.2942 20.0589C26.1756 19.9699 26.0718 19.7623 25.9828 19.4805L22.4974 8.01591C22.4084 7.71928 22.3639 7.52647 22.3639 7.42266C22.3639 7.18536 22.4826 7.05187 22.7199 7.05187H24.1734C24.4552 7.05187 24.648 7.09637 24.7518 7.20019C24.8704 7.28917 24.9594 7.49681 25.0484 7.77861L27.5401 17.5969L29.8537 7.77861C29.9279 7.48198 30.0169 7.28917 30.1355 7.20019C30.2542 7.1112 30.4618 7.05187 30.7288 7.05187H31.9153C32.1971 7.05187 32.3899 7.09637 32.5085 7.20019C32.6272 7.28917 32.731 7.49681 32.7903 7.77861L35.1337 17.7156L37.6995 7.77861C37.7885 7.48198 37.8923 7.28917 37.9961 7.20019C38.1148 7.1112 38.3076 7.05187 38.5745 7.05187H39.9539C40.1912 7.05187 40.3246 7.17052 40.3246 7.42266C40.3246 7.49681 40.3098 7.57097 40.295 7.65996C40.2801 7.74894 40.2505 7.86759 40.1912 8.03074L36.6168 19.4953C36.5278 19.792 36.424 19.9848 36.3054 20.0737C36.1867 20.1627 35.9939 20.2221 35.7418 20.2221H34.4663C34.1845 20.2221 33.9917 20.1776 33.873 20.0737C33.7544 19.9699 33.6506 19.7771 33.5912 19.4805L31.2924 9.91431L29.0084 19.4657C28.9342 19.7623 28.8452 19.9551 28.7266 20.0589C28.6079 20.1627 28.4003 20.2072 28.1333 20.2072H26.8578ZM45.916 20.6077C45.1448 20.6077 44.3736 20.5187 43.632 20.3407C42.8905 20.1627 42.312 19.9699 41.9264 19.7475C41.6891 19.614 41.526 19.4657 41.4667 19.3322C41.4073 19.1987 41.3777 19.0504 41.3777 18.9169V18.1605C41.3777 17.8491 41.4963 17.7007 41.7188 17.7007C41.8078 17.7007 41.8968 17.7156 41.9857 17.7452C42.0747 17.7749 42.2082 17.8342 42.3565 17.8935C42.8608 18.116 43.4095 18.294 43.988 18.4126C44.5812 18.5313 45.1596 18.5906 45.7529 18.5906C46.6873 18.5906 47.414 18.4275 47.9183 18.1012C48.4225 17.7749 48.6895 17.3003 48.6895 16.6922C48.6895 16.2769 48.556 15.9358 48.289 15.654C48.0221 15.3722 47.5178 15.1201 46.7911 14.8828L44.6405 14.2154C43.5579 13.8743 42.757 13.37 42.2675 12.7026C41.7781 12.05 41.526 11.3233 41.526 10.5521C41.526 9.92914 41.6595 9.38039 41.9264 8.90579C42.1934 8.43118 42.5493 8.01591 42.9943 7.68962C43.4392 7.3485 43.9435 7.09637 44.5367 6.91839C45.13 6.74042 45.7529 6.66626 46.4055 6.66626C46.7318 6.66626 47.0729 6.68109 47.3992 6.72558C47.7403 6.77008 48.0517 6.8294 48.3632 6.88873C48.6598 6.96289 48.9416 7.03704 49.2086 7.12603C49.4755 7.21502 49.6832 7.30401 49.8315 7.39299C50.0391 7.51164 50.1875 7.63029 50.2764 7.76378C50.3654 7.88243 50.4099 8.04557 50.4099 8.25321V8.95028C50.4099 9.26174 50.2913 9.42488 50.0688 9.42488C49.9501 9.42488 49.7573 9.36556 49.5052 9.2469C48.6598 8.86129 47.7106 8.66848 46.6576 8.66848C45.8122 8.66848 45.1448 8.80197 44.685 9.08376C44.2253 9.36556 43.988 9.79566 43.988 10.4037C43.988 10.819 44.1363 11.175 44.4329 11.4568C44.7295 11.7386 45.2783 12.0204 46.0644 12.2725L48.1704 12.9399C49.2382 13.281 50.0095 13.7556 50.4692 14.3637C50.929 14.9718 51.1515 15.6689 51.1515 16.4401C51.1515 17.0778 51.018 17.6562 50.7659 18.1605C50.4989 18.6648 50.143 19.1097 49.6832 19.4657C49.2234 19.8364 48.6747 20.1034 48.0369 20.2962C47.3695 20.5039 46.6724 20.6077 45.916 20.6077Z" fill="white"/>
<path fill-rule="evenodd" clip-rule="evenodd" d="M48.7193 27.8162C43.8398 31.4202 36.7505 33.3334 30.6548 33.3334C22.112 33.3334 14.4145 30.1744 8.60068 24.9241C8.14091 24.5088 8.55618 23.9452 9.10494 24.2715C15.3934 27.92 23.1502 30.1299 31.1739 30.1299C36.5873 30.1299 42.5347 29.0027 48.0074 26.689C48.8232 26.3182 49.5202 27.2229 48.7193 27.8162Z" fill="white"/>
<path fill-rule="evenodd" clip-rule="evenodd" d="M50.7512 25.5025C50.1283 24.7016 46.6281 25.1169 45.0412 25.3097C44.5666 25.369 44.4924 24.9538 44.9225 24.6423C47.7108 22.6846 52.2937 23.2482 52.8276 23.9007C53.3615 24.5681 52.6793 29.151 50.069 31.346C49.6685 31.6872 49.2829 31.5092 49.4609 31.0643C50.0541 29.596 51.3741 26.2886 50.7512 25.5025Z" fill="white"/>
</svg>
