<svg width="171" height="40" viewBox="0 0 171 40" fill="none" xmlns="http://www.w3.org/2000/svg">
<path fill-rule="evenodd" clip-rule="evenodd" d="M34.7424 18.9689L34.6923 18.9303C35.8153 17.3103 36.3774 15.3393 36.3774 13.0186C36.3774 9.57543 35.198 6.87672 32.8392 4.925C30.4792 2.97201 27.2336 1.99743 23.1 2.00001H12.8039V3.44258H22.9139C26.4277 3.44258 29.5616 4.22558 31.5495 5.84943C33.3987 7.36143 34.0776 8.66258 34.6192 10.6091C34.0686 8.83358 32.7738 7.69058 31.9691 7.01943C30.56 5.83272 28.8096 5.00215 24.0407 5.00215H16.1007V6.40872H23.8636C27.933 6.40872 29.4268 6.91143 30.7962 7.92715C32.5479 9.22829 33.6349 10.7814 33.6349 13.025C33.6349 15.0449 32.9278 16.1261 31.7394 17.2473C31.6008 17.1933 31.4609 17.1393 31.3185 17.0891L31.4532 17.0171C32.7404 16.3061 33.631 14.9394 33.631 13.0186C33.631 10.919 32.4298 9.60758 31.2556 8.86829C30.1532 8.17658 29.1047 7.71243 24.6285 7.71243H18.9202V8.64972H24.4681C28.508 8.64972 30.039 9.36972 30.5036 9.65386C31.4109 10.2119 32.6095 11.1787 32.6095 13.0327C32.6095 14.2156 31.9127 15.6389 30.8821 16.2187C30.5472 16.4051 30.1943 16.5543 29.8285 16.6674C28.2962 16.319 26.7267 16.1506 25.1546 16.1647H18.2696V17.606H24.966C28.4785 17.606 31.6598 18.3311 33.6015 20.0141C35.0671 21.2639 36.1335 22.9173 36.6687 24.7713C36.1207 22.9957 34.9952 21.9183 34.0212 21.1816C32.5466 20.0643 30.8616 19.163 26.0927 19.1656H15.2974V20.5709H25.9156C29.9851 20.5709 31.4763 21.0736 32.8469 22.0893C34.5999 23.3904 35.6702 24.9449 35.6702 27.1871C35.6702 29.3484 34.5833 30.926 32.8225 32.2271C31.0207 33.5579 28.268 33.5977 27.1476 33.5977H21.2495V35.0017H25.659C29.3486 35.0017 31.8138 34.6854 33.9467 33.1014C35.9474 31.61 37.0113 29.6827 37.0113 27.1884C37.0306 28.5256 36.7444 29.8486 36.1746 31.0559C35.6035 32.2644 34.7642 33.3251 33.7221 34.157C31.7022 35.8297 28.0973 36.5664 24.4911 36.5664H12.8834V38H24.5733C28.9263 38 32.3246 37.0524 34.7668 35.1573C37.2077 33.2634 38.4307 30.6007 38.4333 27.1717C38.4243 23.7247 37.241 21.026 34.8797 19.0769C34.8348 19.0396 34.7886 19.0036 34.7424 18.9689ZM34.9503 13.2024C34.9464 14.9433 34.4241 16.6456 33.4475 18.0907C33.323 18.0187 33.1973 17.9493 33.0702 17.8786C34.2701 16.616 34.9413 14.942 34.9503 13.2024ZM27.7136 25.1506H17.5958V25.9361H27.7136V25.1506ZM21.7679 28.0087H27.6533V28.6811H21.7679V28.0087ZM15.8685 25.1506H12.8719V25.9361H15.8685V25.1506ZM11.0033 27.9534H20.106V28.7377H11.0033V27.9534ZM19.5696 33.9461H11.0033V34.8873H19.5696V33.9461ZM13.2466 7.931H16.7937V8.579H13.2466V7.931ZM18.8997 13.0841H10.7749V13.8376H18.8997V13.0841ZM14.2207 10.7814H27.6725V11.5349H14.2207V10.7814ZM27.4171 13.0841H20.9466V13.8376H27.4171V13.0841ZM35.6574 27.1743C35.6574 28.9884 34.7835 30.3461 33.4937 31.0314C32.2091 31.7141 30.3893 32.1063 27.3119 32.1063H8.59967V31.214H27.2272C30.0672 31.214 31.9755 30.755 32.9149 30.2446C33.9467 29.6801 34.6436 28.3109 34.6436 27.1704C34.6436 25.3859 33.4449 24.446 32.5376 23.9073C32.0743 23.6334 30.5408 22.9379 26.5034 22.9379H19.3963V22.0456H26.6702C31.2274 22.0456 32.195 22.4956 33.2986 23.1616C34.4729 23.8777 35.6574 25.1493 35.6574 27.1743ZM71.8165 11.2803C71.2839 11.2944 70.7642 11.126 70.342 10.8007C70.1508 10.6631 69.9968 10.4806 69.8915 10.2697C69.785 10.0601 69.7311 9.82615 69.7324 9.59086C69.7311 9.35429 69.785 9.12029 69.8902 8.90815C69.9968 8.696 70.1508 8.51343 70.342 8.37329C70.7616 8.04286 71.2827 7.87058 71.8165 7.88729C72.3581 7.87058 72.8881 8.04286 73.318 8.37329C73.5105 8.50958 73.6671 8.68958 73.7762 8.90043C73.884 9.11 73.9404 9.34272 73.9404 9.57929C73.9404 9.81586 73.884 10.0486 73.7762 10.2594C73.6671 10.469 73.5105 10.6503 73.318 10.7866C72.8894 11.1209 72.3594 11.2957 71.8165 11.2803ZM73.3873 31.7334H70.1674V15.4216H73.3873V31.7334ZM49.1593 31.7334V8.89015H57.1622C59.5954 8.89015 61.5268 9.37229 62.9526 10.3391C64.3796 11.3047 65.0932 12.5621 65.0932 14.114C65.1098 15.365 64.6466 16.5749 63.797 17.4929C62.9333 18.4494 61.7398 19.1296 60.2165 19.532V19.595C62.1133 19.7763 63.6314 20.3574 64.771 21.3397C65.3254 21.8077 65.7669 22.3953 66.0634 23.0587C66.3585 23.7221 66.501 24.4434 66.4792 25.1699C66.4792 27.1254 65.6155 28.7081 63.8881 29.9167C62.1607 31.1266 59.9842 31.7321 57.3585 31.7334H49.1593ZM52.4575 11.3124V18.6873H55.8275C57.6332 18.6873 59.0525 18.3363 60.0856 17.6317C60.581 17.3116 60.9839 16.868 61.256 16.3434C61.5281 15.8201 61.6602 15.2339 61.6384 14.6437C61.6384 12.4259 59.8392 11.3163 56.2407 11.3163L52.4575 11.3124ZM52.4575 21.0929V29.3137H56.9325C58.869 29.3137 60.3718 28.9409 61.4382 28.1977C61.9439 27.8686 62.3571 27.4134 62.6369 26.8786C62.9179 26.3424 63.0565 25.7433 63.0385 25.139C63.0385 22.4429 60.7747 21.0941 56.2459 21.0929H52.4575ZM84.6177 32.0831C85.8626 32.0844 86.8636 31.9147 87.622 31.5753L87.6284 29.3446C86.9906 29.7187 86.2604 29.9064 85.5212 29.8859C84.4599 29.8859 83.7002 29.6519 83.2433 29.1839C82.7851 28.7171 82.5554 27.9367 82.5554 26.8426V17.651H87.622V15.4216H82.5554V10.5937L79.3381 11.4384V15.4216H75.8808V17.651H79.3381V27.3054C79.3368 30.4901 81.0963 32.0831 84.6177 32.0831ZM116.863 31.7334H113.847V17.6369C113.862 16.2701 113.946 14.906 114.1 13.5483H114.028C113.835 14.2503 113.575 14.9317 113.251 15.5836L104.404 31.7334H102.93L94.099 15.7019C93.764 15.014 93.5035 14.2914 93.3213 13.5483H93.2494C93.3675 14.9176 93.4163 16.292 93.3944 17.6651V31.7334H90.4505V10.7184H94.4519L102.4 25.373C102.867 26.1779 103.265 27.0213 103.592 27.8943H103.701C104.218 26.741 104.633 25.8821 104.946 25.3164L113.055 10.7184H116.846L116.863 31.7334ZM133.219 31.7334H136.44V21.125C136.439 17.0673 134.076 15.0384 129.352 15.0384C126.773 15.0384 124.495 15.5489 122.52 16.5671V19.2453C124.446 17.9133 126.738 17.2126 129.077 17.237C131.839 17.2383 133.219 18.6243 133.219 21.395L127.194 22.0803C122.769 22.5791 120.556 24.3521 120.556 27.4006C120.539 28.0666 120.684 28.7274 120.981 29.324C121.276 29.9206 121.714 30.4361 122.254 30.8244C123.387 31.6846 124.954 32.1153 126.957 32.1153C129.675 32.1166 131.736 31.1394 133.14 29.1839H133.219V31.7334ZM128.374 24.0243L133.219 23.483L133.232 25.1069C133.246 25.7626 133.114 26.4119 132.843 27.0097C132.573 27.6063 132.172 28.1347 131.671 28.5551C130.63 29.4629 129.312 29.9167 127.716 29.9167C126.553 29.9167 125.62 29.6647 124.918 29.1607C124.593 28.9511 124.327 28.6619 124.142 28.3211C123.958 27.9791 123.863 27.5973 123.865 27.2103C123.872 26.1149 124.252 25.3524 125.004 24.923C125.757 24.4936 126.88 24.194 128.374 24.0243ZM151.38 18.065C150.82 17.714 150.007 17.5391 148.946 17.5391C148.291 17.5289 147.642 17.6639 147.045 17.9377C146.45 18.2103 145.921 18.6127 145.5 19.1167C144.577 20.1684 144.117 21.602 144.117 23.4174V31.7334H140.898V15.4216H144.117V18.785H144.196C144.608 17.696 145.344 16.7587 146.302 16.1004C147.233 15.4627 148.335 15.1259 149.462 15.1361C150.111 15.113 150.759 15.1889 151.386 15.3599V15.4216H154.309V11.4384L157.528 10.5937V15.4216H162.583V17.651H157.528V26.8426C157.528 27.9367 157.756 28.7171 158.214 29.1839C158.672 29.6519 159.432 29.8859 160.493 29.8859C161.231 29.9064 161.961 29.7187 162.599 29.3446L162.593 31.5753C161.834 31.9147 160.833 32.0844 159.59 32.0831C156.067 32.0831 154.308 30.4901 154.309 27.3054V17.651H151.382L151.38 18.065ZM8.8666 36.5767H11.0098V37.9421H8.8666V36.5767Z" fill="white"/>
</svg>
