<svg width="80" height="80" viewBox="0 0 80 80" fill="none" xmlns="http://www.w3.org/2000/svg">
<g filter="url(#filter0_b_2487_13190)">
<rect width="80" height="80" rx="40" fill="#62CEFF" fill-opacity="0.1"/>
<path d="M34.9398 46.5598C34.5598 46.5598 34.1798 46.4198 33.8798 46.1198C32.2398 44.4798 31.3398 42.2998 31.3398 39.9998C31.3398 35.2198 35.2198 31.3398 39.9998 31.3398C42.2998 31.3398 44.4798 32.2398 46.1198 33.8798C46.3998 34.1598 46.5598 34.5398 46.5598 34.9398C46.5598 35.3398 46.3998 35.7198 46.1198 35.9998L35.9998 46.1198C35.6998 46.4198 35.3198 46.5598 34.9398 46.5598ZM39.9998 34.3398C36.8798 34.3398 34.3398 36.8798 34.3398 39.9998C34.3398 40.9998 34.5998 41.9598 35.0798 42.7998L42.7998 35.0798C41.9598 34.5998 40.9998 34.3398 39.9998 34.3398Z" fill="#DAA15D"/>
<path d="M27.1997 53.0202C26.8597 53.0202 26.4997 52.9002 26.2197 52.6602C24.0797 50.8402 22.1597 48.6002 20.5197 46.0002C18.3997 42.7002 18.3997 37.3202 20.5197 34.0002C25.3997 26.3602 32.4997 21.9602 39.9997 21.9602C44.3997 21.9602 48.7397 23.4802 52.5397 26.3402C53.1997 26.8402 53.3397 27.7802 52.8397 28.4402C52.3397 29.1002 51.3997 29.2402 50.7397 28.7402C47.4597 26.2602 43.7397 24.9602 39.9997 24.9602C33.5397 24.9602 27.3597 28.8402 23.0397 35.6202C21.5397 37.9602 21.5397 42.0402 23.0397 44.3802C24.5397 46.7202 26.2597 48.7402 28.1597 50.3802C28.7797 50.9202 28.8597 51.8602 28.3197 52.5002C28.0397 52.8402 27.6197 53.0202 27.1997 53.0202Z" fill="#DAA15D"/>
<path d="M39.9999 58.0402C37.3399 58.0402 34.7399 57.5002 32.2399 56.4402C31.4799 56.1202 31.1199 55.2402 31.4399 54.4802C31.7599 53.7202 32.6399 53.3602 33.3999 53.6802C35.5199 54.5802 37.7399 55.0402 39.9799 55.0402C46.4399 55.0402 52.6199 51.1602 56.9399 44.3802C58.4399 42.0402 58.4399 37.9602 56.9399 35.6202C56.3199 34.6402 55.6399 33.7002 54.9199 32.8202C54.3999 32.1802 54.4999 31.2402 55.1399 30.7002C55.7799 30.1802 56.7199 30.2602 57.2599 30.9202C58.0399 31.8802 58.7999 32.9202 59.4799 34.0002C61.5999 37.3002 61.5999 42.6802 59.4799 46.0002C54.5999 53.6402 47.4999 58.0402 39.9999 58.0402Z" fill="#DAA15D"/>
<path d="M41.3799 48.54C40.6799 48.54 40.0399 48.04 39.8999 47.32C39.7399 46.5 40.2799 45.72 41.0999 45.58C43.2999 45.18 45.1399 43.34 45.5399 41.14C45.6999 40.32 46.4799 39.8 47.2999 39.94C48.1199 40.1 48.6599 40.88 48.4999 41.7C47.8599 45.16 45.0999 47.9 41.6599 48.54C41.5599 48.52 41.4799 48.54 41.3799 48.54Z" fill="#DAA15D"/>
<path d="M20.0001 61.5002C19.6201 61.5002 19.2401 61.3602 18.9401 61.0602C18.3601 60.4802 18.3601 59.5202 18.9401 58.9402L33.8801 44.0002C34.4601 43.4202 35.4201 43.4202 36.0001 44.0002C36.5801 44.5802 36.5801 45.5402 36.0001 46.1202L21.0601 61.0602C20.7601 61.3602 20.3801 61.5002 20.0001 61.5002Z" fill="#DAA15D"/>
<path d="M45.0602 36.4401C44.6802 36.4401 44.3002 36.3001 44.0002 36.0001C43.4202 35.4201 43.4202 34.4601 44.0002 33.8801L58.9402 18.9401C59.5202 18.3601 60.4802 18.3601 61.0602 18.9401C61.6402 19.5201 61.6402 20.4801 61.0602 21.0601L46.1202 36.0001C45.8202 36.3001 45.4402 36.4401 45.0602 36.4401Z" fill="#DAA15D"/>
</g>
<defs>
<filter id="filter0_b_2487_13190" x="-20" y="-20" width="120" height="120" filterUnits="userSpaceOnUse" color-interpolation-filters="sRGB">
<feFlood flood-opacity="0" result="BackgroundImageFix"/>
<feGaussianBlur in="BackgroundImageFix" stdDeviation="10"/>
<feComposite in2="SourceAlpha" operator="in" result="effect1_backgroundBlur_2487_13190"/>
<feBlend mode="normal" in="SourceGraphic" in2="effect1_backgroundBlur_2487_13190" result="shape"/>
</filter>
</defs>
</svg>
