<svg width="64" height="64" viewBox="0 0 64 64" fill="none" xmlns="http://www.w3.org/2000/svg">
<g filter="url(#filter0_b_2641_300)">
<rect width="64" height="64" rx="32" fill="#62CEFF" fill-opacity="0.1"/>
<path d="M34.8839 37.1161L34.5178 36.75H34H30H29.4822L29.1161 37.1161L25.4822 40.75H22C21.2707 40.75 20.5712 40.4603 20.0555 39.9445C19.5397 39.4288 19.25 38.7293 19.25 38V26C19.25 25.2707 19.5397 24.5712 20.0555 24.0555C20.5712 23.5397 21.2707 23.25 22 23.25H42C42.7293 23.25 43.4288 23.5397 43.9445 24.0555C44.4603 24.5712 44.75 25.2707 44.75 26V38C44.75 38.7293 44.4603 39.4288 43.9445 39.9445C43.4288 40.4603 42.7293 40.75 42 40.75H38.5178L34.8839 37.1161ZM50.75 36C50.75 36.1989 50.671 36.3897 50.5303 36.5303C50.3897 36.671 50.1989 36.75 50 36.75C49.8011 36.75 49.6103 36.671 49.4697 36.5303C49.329 36.3897 49.25 36.1989 49.25 36V28C49.25 27.8011 49.329 27.6103 49.4697 27.4697C49.6103 27.329 49.8011 27.25 50 27.25C50.1989 27.25 50.3897 27.329 50.5303 27.4697C50.671 27.6103 50.75 27.8011 50.75 28V36ZM14.75 36C14.75 36.1989 14.671 36.3897 14.5303 36.5303C14.3897 36.671 14.1989 36.75 14 36.75C13.8011 36.75 13.6103 36.671 13.4697 36.5303C13.329 36.3897 13.25 36.1989 13.25 36V28C13.25 27.8011 13.329 27.6103 13.4697 27.4697C13.6103 27.329 13.8011 27.25 14 27.25C14.1989 27.25 14.3897 27.329 14.5303 27.4697C14.671 27.6103 14.75 27.8011 14.75 28V36Z" stroke="#DAA15D" stroke-width="2.5"/>
</g>
<defs>
<filter id="filter0_b_2641_300" x="-20" y="-20" width="104" height="104" filterUnits="userSpaceOnUse" color-interpolation-filters="sRGB">
<feFlood flood-opacity="0" result="BackgroundImageFix"/>
<feGaussianBlur in="BackgroundImageFix" stdDeviation="10"/>
<feComposite in2="SourceAlpha" operator="in" result="effect1_backgroundBlur_2641_300"/>
<feBlend mode="normal" in="SourceGraphic" in2="effect1_backgroundBlur_2641_300" result="shape"/>
</filter>
</defs>
</svg>
