<svg width="81" height="80" viewBox="0 0 81 80" fill="none" xmlns="http://www.w3.org/2000/svg">
<g filter="url(#filter0_b_2487_13225)">
<rect x="0.666748" width="80" height="80" rx="40" fill="#62CEFF" fill-opacity="0.1"/>
<path d="M28.6663 61.5002C28.0663 61.5002 27.4263 61.4402 26.7863 61.3202C26.4463 61.2402 26.1463 61.1601 25.8463 61.0801C25.5063 60.9801 25.1862 60.8601 24.8862 60.7401C24.8062 60.7201 24.7463 60.6802 24.6863 60.6602C23.9863 60.3002 23.3863 59.9402 22.8463 59.5402C22.8063 59.5202 22.7863 59.4801 22.7463 59.4601C22.4463 59.2201 22.1662 58.9802 21.9062 58.7002C21.6262 58.4002 21.4262 58.1602 21.2062 57.9202C20.7462 57.3202 20.3662 56.7201 20.0262 56.0201C19.9862 55.9601 19.9663 55.8801 19.9463 55.8001C19.8263 55.5201 19.7262 55.2402 19.6462 54.9402C19.5262 54.5202 19.4462 54.2402 19.3862 53.9402C19.2462 53.2402 19.1863 52.6201 19.1863 52.0201V25.0201C19.1863 21.2001 21.8663 18.5201 25.6863 18.5201H31.6863C35.5063 18.5201 38.1863 21.2001 38.1863 25.0201V52.0002C38.1863 54.4802 37.2263 56.8401 35.4863 58.6201C35.1663 58.9401 34.9262 59.1601 34.7062 59.3401C34.0662 59.9001 33.2463 60.4002 32.3663 60.7602C32.1663 60.8402 31.9263 60.9402 31.6663 61.0402C30.6863 61.3402 29.6663 61.5002 28.6663 61.5002ZM26.1462 58.0002C26.3462 58.0802 26.5463 58.1402 26.7463 58.2002C26.9663 58.2602 27.1863 58.3202 27.4062 58.3802C28.5063 58.5802 29.6863 58.5202 30.6263 58.2002C30.7663 58.1402 30.9662 58.0802 31.1462 58.0002C31.7862 57.7402 32.3062 57.4202 32.7662 57.0402C32.9662 56.8802 33.1063 56.7401 33.2463 56.6201C34.5063 55.3201 35.1663 53.7201 35.1663 52.0201V25.0201C35.1663 22.8601 33.8263 21.5201 31.6663 21.5201H25.6663C23.5063 21.5201 22.1663 22.8601 22.1663 25.0201V52.0002C22.1663 52.4202 22.2063 52.8602 22.3063 53.3202C22.3463 53.5002 22.4062 53.7201 22.4662 53.9601C22.5462 54.1801 22.6063 54.3602 22.6863 54.5602C22.7263 54.6202 22.7462 54.6802 22.7662 54.7202C22.7862 54.7602 22.8062 54.8201 22.8262 54.8601C23.0662 55.3001 23.3063 55.6801 23.5663 56.0201C23.7063 56.1801 23.8863 56.3801 24.0663 56.5801C24.2863 56.8201 24.4663 56.9601 24.6663 57.1201C24.6863 57.1401 24.7263 57.1601 24.7463 57.1801C25.0663 57.4201 25.4263 57.6401 25.8463 57.8601C25.8863 57.8801 25.9262 57.8801 25.9662 57.9001C26.0062 57.9201 26.0662 57.9602 26.1462 58.0002Z" fill="#DAA15D"/>
<path d="M55.6667 61.5002H28.6667C27.8467 61.5002 27.1667 60.8202 27.1667 60.0002C27.1667 59.1802 27.8467 58.5002 28.6667 58.5002C29.3667 58.5002 30.0468 58.4002 30.6268 58.2002C30.7668 58.1402 30.9667 58.0802 31.1467 58.0002C31.7867 57.7402 32.3067 57.4202 32.7667 57.0402C32.9667 56.8802 33.1068 56.7401 33.2468 56.6201L46.9268 42.9601C47.2068 42.6801 47.5868 42.5201 47.9868 42.5201H55.6667C59.4867 42.5201 62.1667 45.2001 62.1667 49.0201V55.0201C62.1667 58.8201 59.4867 61.5002 55.6667 61.5002ZM35.5867 58.5002H55.6667C57.8267 58.5002 59.1667 57.1602 59.1667 55.0002V49.0002C59.1667 46.8402 57.8267 45.5002 55.6667 45.5002H48.6068L35.5867 58.5002Z" fill="#DAA15D"/>
<path d="M26.2871 61.1401C26.1471 61.1401 26.0072 61.1201 25.8672 61.0801C24.3872 60.6401 23.0272 59.8201 21.9472 58.7201C20.8672 57.6601 20.0472 56.3001 19.6072 54.8201C19.3672 54.0201 19.8072 53.2001 20.6072 52.9601C21.4072 52.7201 22.2272 53.1601 22.4872 53.9401C23.1272 55.9801 24.7271 57.5801 26.7671 58.2201C27.5471 58.4601 27.9872 59.3001 27.7472 60.1001C27.5272 60.7201 26.9271 61.1401 26.2871 61.1401Z" fill="#DAA15D"/>
<path d="M34.3867 59.0798C34.0067 59.0798 33.6267 58.9399 33.3267 58.6399C32.7467 58.0599 32.7267 57.1198 33.3067 56.5198C34.5067 55.2998 35.1667 53.6799 35.1667 51.9799V32.6599C35.1667 32.2599 35.3267 31.8799 35.6067 31.5999L41.0267 26.1798C43.6467 23.5598 47.6067 23.5598 50.2267 26.1798L54.4667 30.4199C57.1667 33.1199 57.1667 36.9198 54.4667 39.6198L35.4468 58.6199C35.1468 58.9399 34.7667 59.0798 34.3867 59.0798ZM38.1667 33.2998V51.6798L52.3467 37.5198C53.8667 35.9998 53.8667 34.0998 52.3467 32.5598L48.1067 28.3199C46.6067 26.8199 44.6467 26.8199 43.1467 28.3199L38.1667 33.2998Z" fill="#DAA15D"/>
<path d="M28.6667 55.5C26.7467 55.5 25.1667 53.92 25.1667 52C25.1667 50.08 26.7467 48.5 28.6667 48.5C30.5867 48.5 32.1667 50.08 32.1667 52C32.1667 53.92 30.5867 55.5 28.6667 55.5ZM28.6667 51.5C28.3867 51.5 28.1667 51.72 28.1667 52C28.1667 52.56 29.1667 52.56 29.1667 52C29.1667 51.72 28.9467 51.5 28.6667 51.5Z" fill="#DAA15D"/>
</g>
<defs>
<filter id="filter0_b_2487_13225" x="-19.3333" y="-20" width="120" height="120" filterUnits="userSpaceOnUse" color-interpolation-filters="sRGB">
<feFlood flood-opacity="0" result="BackgroundImageFix"/>
<feGaussianBlur in="BackgroundImageFix" stdDeviation="10"/>
<feComposite in2="SourceAlpha" operator="in" result="effect1_backgroundBlur_2487_13225"/>
<feBlend mode="normal" in="SourceGraphic" in2="effect1_backgroundBlur_2487_13225" result="shape"/>
</filter>
</defs>
</svg>
