<svg width="64" height="64" viewBox="0 0 64 64" fill="none" xmlns="http://www.w3.org/2000/svg">
<g filter="url(#filter0_b_2641_4687)">
<rect width="64" height="64" rx="32" fill="#62CEFF" fill-opacity="0.1"/>
<path d="M31.9997 34.6C31.7397 34.6 31.4797 34.54 31.2397 34.4L13.5797 24.18C12.8597 23.76 12.6197 22.84 13.0397 22.12C13.4597 21.4 14.3597 21.1599 15.0997 21.5799L31.9997 31.36L48.7997 21.64C49.5197 21.22 50.4397 21.48 50.8597 22.18C51.2797 22.9 51.0197 23.82 50.3197 24.24L32.7797 34.4C32.5197 34.52 32.2597 34.6 31.9997 34.6Z" fill="#DAA15D"/>
<path d="M32 52.7201C31.18 52.7201 30.5 52.0401 30.5 51.2201V33.0801C30.5 32.2601 31.18 31.5801 32 31.5801C32.82 31.5801 33.5 32.2601 33.5 33.0801V51.2201C33.5 52.0401 32.82 52.7201 32 52.7201Z" fill="#DAA15D"/>
<path d="M31.9998 53.5C30.1798 53.5 28.4398 53.08 27.1198 52.34L16.4398 46.42C13.5398 44.82 11.2598 40.96 11.2598 37.64V26.3199C11.2598 22.9999 13.5398 19.16 16.4398 17.54L27.1198 11.62C29.8398 10.1 34.1197 10.1 36.8597 11.62L47.5397 17.54C50.4397 19.14 52.7197 22.9999 52.7197 26.3199V33.64C52.7197 34.46 52.0397 35.14 51.2197 35.14C50.3997 35.14 49.7197 34.46 49.7197 33.64V26.3199C49.7197 24.1199 48.0197 21.24 46.0997 20.18L35.4197 14.26C33.5997 13.24 30.4197 13.24 28.5997 14.26L17.9197 20.18C15.9797 21.26 14.2997 24.1199 14.2997 26.3199V37.64C14.2997 39.84 15.9997 42.72 17.9197 43.78L28.5997 49.6999C30.3597 50.6799 33.6797 50.6799 35.4197 49.6999C36.1397 49.2999 37.0598 49.56 37.4598 50.28C37.8598 51 37.5998 51.9199 36.8798 52.3199C35.5598 53.0799 33.8198 53.5 31.9998 53.5Z" fill="#DAA15D"/>
<path d="M46.4 52.3C42.04 52.3 38.5 48.76 38.5 44.4C38.5 40.04 42.04 36.5 46.4 36.5C50.76 36.5 54.3 40.04 54.3 44.4C54.3 48.76 50.76 52.3 46.4 52.3ZM46.4 39.5C43.7 39.5 41.5 41.7 41.5 44.4C41.5 47.1 43.7 49.3 46.4 49.3C49.1 49.3 51.3 47.1 51.3 44.4C51.3 41.7 49.1 39.5 46.4 39.5Z" fill="#DAA15D"/>
<path d="M53.9999 53.4999C53.6199 53.4999 53.2399 53.36 52.9399 53.06L50.9399 51.06C50.3599 50.48 50.3599 49.5199 50.9399 48.9399C51.5199 48.3599 52.4799 48.3599 53.0599 48.9399L55.0599 50.9399C55.6399 51.5199 55.6399 52.48 55.0599 53.06C54.7599 53.36 54.3799 53.4999 53.9999 53.4999Z" fill="#DAA15D"/>
</g>
<defs>
<filter id="filter0_b_2641_4687" x="-20" y="-20" width="104" height="104" filterUnits="userSpaceOnUse" color-interpolation-filters="sRGB">
<feFlood flood-opacity="0" result="BackgroundImageFix"/>
<feGaussianBlur in="BackgroundImageFix" stdDeviation="10"/>
<feComposite in2="SourceAlpha" operator="in" result="effect1_backgroundBlur_2641_4687"/>
<feBlend mode="normal" in="SourceGraphic" in2="effect1_backgroundBlur_2641_4687" result="shape"/>
</filter>
</defs>
</svg>
