<svg width="113" height="112" viewBox="0 0 113 112" fill="none" xmlns="http://www.w3.org/2000/svg">
<g filter="url(#filter0_b_2774_30736)">
<rect x="0.666656" width="112" height="112" rx="56" fill="#62CEFF" fill-opacity="0.1"/>
<path opacity="0.1" d="M66.6667 46V52.6667C66.6667 55.4233 68.91 57.6667 71.6667 57.6667H75C77.7567 57.6667 80 55.4233 80 52.6667V46H66.6667Z" fill="#0060FD"/>
<path opacity="0.2" d="M67.5 46V52.6667C67.5 54.965 69.3683 56.8333 71.6667 56.8333H75C77.2983 56.8333 79.1667 54.965 79.1667 52.6667V46H67.5Z" fill="#0060FD"/>
<path opacity="0.3" d="M68.3333 46V52.6667C68.3333 54.505 69.8283 56 71.6666 56H75C76.8383 56 78.3333 54.505 78.3333 52.6667V46H68.3333Z" fill="#0060FD"/>
<path opacity="0.4" d="M69.1667 46V52.6667C69.1667 54.0467 70.2867 55.1667 71.6667 55.1667H75C76.38 55.1667 77.5 54.0467 77.5 52.6667V46H69.1667Z" fill="#0060FD"/>
<path opacity="0.8" d="M70 46V52.6667C70 53.5867 70.7467 54.3333 71.6667 54.3333H75C75.92 54.3333 76.6667 53.5867 76.6667 52.6667V46H70Z" fill="#0060FD"/>
<path opacity="0.1" d="M33.3333 46V52.6667C33.3333 55.4233 35.5766 57.6667 38.3333 57.6667H41.6666C44.4233 57.6667 46.6666 55.4233 46.6666 52.6667V46H33.3333Z" fill="#0060FD"/>
<path opacity="0.2" d="M34.1667 46V52.6667C34.1667 54.965 36.035 56.8333 38.3333 56.8333H41.6667C43.965 56.8333 45.8333 54.965 45.8333 52.6667V46H34.1667Z" fill="#0060FD"/>
<path opacity="0.3" d="M35 46V52.6667C35 54.505 36.495 56 38.3333 56H41.6667C43.505 56 45 54.505 45 52.6667V46H35Z" fill="#0060FD"/>
<path opacity="0.4" d="M35.8333 46V52.6667C35.8333 54.0467 36.9533 55.1667 38.3333 55.1667H41.6666C43.0466 55.1667 44.1666 54.0467 44.1666 52.6667V46H35.8333Z" fill="#0060FD"/>
<path opacity="0.8" d="M36.6667 46V52.6667C36.6667 53.5867 37.4133 54.3333 38.3333 54.3333H41.6667C42.5867 54.3333 43.3333 53.5867 43.3333 52.6667V46H36.6667Z" fill="#0060FD"/>
<path d="M75 54.3333H71.6667C70.7467 54.3333 70 53.5866 70 52.6666V41.4716C70 34.3766 64.6583 28.1716 57.58 27.6983C49.8167 27.1766 43.3333 33.3466 43.3333 41V52.6666C43.3333 53.5866 42.5867 54.3333 41.6667 54.3333H38.3333C37.4133 54.3333 36.6667 53.5866 36.6667 52.6666V41.585C36.6667 31.1766 44.3767 22.065 54.74 21.09C66.6317 19.9716 76.6667 29.335 76.6667 41V52.6666C76.6667 53.5866 75.92 54.3333 75 54.3333Z" fill="url(#paint0_linear_2774_30736)"/>
<path opacity="0.1" d="M43.3333 42.6667H36.6667V49.3334H43.3333V42.6667Z" fill="#2E8EFE"/>
<path opacity="0.2" d="M43.3333 43.3334H36.6667V49.3334H43.3333V43.3334Z" fill="#2E8EFE"/>
<path opacity="0.3" d="M43.3333 44H36.6667V49.3333H43.3333V44Z" fill="#2E8EFE"/>
<path opacity="0.4" d="M43.3333 44.6667H36.6667V49.3334H43.3333V44.6667Z" fill="#2E8EFE"/>
<path opacity="0.5" d="M43.3333 45.3334H36.6667V49.3334H43.3333V45.3334Z" fill="#2E8EFE"/>
<path opacity="0.1" d="M76.6667 42.6667H70V49.3334H76.6667V42.6667Z" fill="#2E8EFE"/>
<path opacity="0.2" d="M76.6667 43.3334H70V49.3334H76.6667V43.3334Z" fill="#2E8EFE"/>
<path opacity="0.3" d="M76.6667 44H70V49.3333H76.6667V44Z" fill="#2E8EFE"/>
<path opacity="0.4" d="M76.6667 44.6667H70V49.3334H76.6667V44.6667Z" fill="#2E8EFE"/>
<path opacity="0.5" d="M76.6667 45.3334H70V49.3334H76.6667V45.3334Z" fill="#2E8EFE"/>
<path d="M36.6667 46V52.6667C36.6667 53.5867 37.4133 54.3333 38.3333 54.3333H41.6667C42.5867 54.3333 43.3333 53.5867 43.3333 52.6667V46H36.6667Z" fill="#2E8EFE"/>
<path d="M70 46V52.6667C70 53.5867 70.7467 54.3333 71.6667 54.3333H75C75.92 54.3333 76.6667 53.5867 76.6667 52.6667V46H70Z" fill="#2E8EFE"/>
<path d="M80 46H33.3333C31.4917 46 30 47.4917 30 49.3333V64.3333C30 79.9817 41.0183 91 56.6667 91C72.315 91 83.3333 79.9817 83.3333 64.3333V49.3333C83.3333 47.4917 81.8417 46 80 46ZM58.5483 68.96L60 77.6667H53.3333L54.785 68.96C52.9567 68.2167 51.6667 66.4283 51.6667 64.3333C51.6667 61.5717 53.905 59.3333 56.6667 59.3333C59.4283 59.3333 61.6667 61.5717 61.6667 64.3333C61.6667 66.4283 60.3767 68.2167 58.5483 68.96Z" fill="url(#paint1_linear_2774_30736)"/>
<path d="M80 46.8333C81.3783 46.8333 82.5 47.955 82.5 49.3333V64.3333C82.5 79.5433 71.8767 90.1667 56.6667 90.1667C41.4567 90.1667 30.8333 79.5433 30.8333 64.3333V49.3333C30.8333 47.955 31.955 46.8333 33.3333 46.8333H80ZM53.86 69.4417L52.5117 77.53L52.35 78.5H53.3333H60H60.9833L60.8217 77.53L59.4733 69.4417C61.3317 68.425 62.5 66.4867 62.5 64.3333C62.5 61.1167 59.8833 58.5 56.6667 58.5C53.45 58.5 50.8333 61.1167 50.8333 64.3333C50.8333 66.4867 52.0017 68.425 53.86 69.4417ZM80 46H33.3333C31.4917 46 30 47.4917 30 49.3333V64.3333C30 79.9817 41.0183 91 56.6667 91C72.315 91 83.3333 79.9817 83.3333 64.3333V49.3333C83.3333 47.4917 81.8417 46 80 46ZM53.3333 77.6667L54.785 68.96C52.9567 68.2167 51.6667 66.4283 51.6667 64.3333C51.6667 61.5717 53.905 59.3333 56.6667 59.3333C59.4283 59.3333 61.6667 61.5717 61.6667 64.3333C61.6667 66.4283 60.3767 68.2167 58.5483 68.96L60 77.6667H53.3333Z" fill="url(#paint2_linear_2774_30736)"/>
</g>
<defs>
<filter id="filter0_b_2774_30736" x="-19.3333" y="-20" width="152" height="152" filterUnits="userSpaceOnUse" color-interpolation-filters="sRGB">
<feFlood flood-opacity="0" result="BackgroundImageFix"/>
<feGaussianBlur in="BackgroundImageFix" stdDeviation="10"/>
<feComposite in2="SourceAlpha" operator="in" result="effect1_backgroundBlur_2774_30736"/>
<feBlend mode="normal" in="SourceGraphic" in2="effect1_backgroundBlur_2774_30736" result="shape"/>
</filter>
<linearGradient id="paint0_linear_2774_30736" x1="56.6667" y1="14.1516" x2="56.6667" y2="47.485" gradientUnits="userSpaceOnUse">
<stop stop-color="#97F8FF"/>
<stop offset="0.125" stop-color="#8EF3FF"/>
<stop offset="0.328" stop-color="#76E4FE"/>
<stop offset="0.584" stop-color="#4ECCFE"/>
<stop offset="0.88" stop-color="#18ABFC"/>
<stop offset="1" stop-color="#009CFC"/>
</linearGradient>
<linearGradient id="paint1_linear_2774_30736" x1="56.6667" y1="51.435" x2="56.6667" y2="86.8683" gradientUnits="userSpaceOnUse">
<stop stop-color="#DAA6FF" stop-opacity="0.6"/>
<stop offset="1" stop-color="#DCA6FF" stop-opacity="0.4"/>
</linearGradient>
<linearGradient id="paint2_linear_2774_30736" x1="56.6667" y1="42.4133" x2="56.6667" y2="69.005" gradientUnits="userSpaceOnUse">
<stop stop-color="#EED9FF" stop-opacity="0.2"/>
<stop offset="1" stop-color="#DAA6FF" stop-opacity="0.6"/>
</linearGradient>
</defs>
</svg>
