<svg width="161" height="40" viewBox="0 0 161 40" fill="none" xmlns="http://www.w3.org/2000/svg">
<path d="M34.4195 12.2804C37.8267 12.2804 40.5597 9.51198 40.5597 6.1402C40.5597 2.73292 37.7912 0 34.4195 0C31.0122 0 28.2793 2.76841 28.2793 6.1402C28.2793 9.51198 31.0122 12.2804 34.4195 12.2804ZM15.5375 40C7.23224 40 0.52417 33.2919 0.52417 24.9867C0.52417 16.6815 7.23224 9.97338 15.5375 9.97338C23.8427 9.97338 30.5508 16.6815 30.5508 24.9867C30.5508 33.2919 23.8427 40 15.5375 40Z" fill="white"/>
<path d="M151.2 26.2009L145.98 14.2209H149.48L153.04 22.8009L157.16 14.2209H160.6L152.48 30.7209H149L151.2 26.2009ZM138.52 23.7209C138.82 23.6409 139.12 23.5409 139.4 23.3809C139.66 23.2409 139.92 23.0609 140.14 22.8609C140.36 22.6609 140.56 22.4209 140.72 22.1609C140.88 21.8809 141.02 21.5809 141.1 21.2809C141.2 20.9409 141.24 20.6009 141.24 20.2409C141.24 19.8809 141.2 19.5409 141.1 19.2009C141.02 18.9009 140.88 18.6009 140.72 18.3209C140.56 18.0609 140.36 17.8209 140.14 17.6209C139.92 17.4209 139.66 17.2409 139.4 17.1009C139.12 16.9609 138.82 16.8609 138.52 16.7809C138.2 16.7009 137.86 16.6609 137.54 16.6809C137.22 16.6809 136.88 16.7209 136.56 16.7809C136.26 16.8409 135.96 16.9609 135.68 17.1009C135.4 17.2409 135.16 17.4209 134.94 17.6209C134.72 17.8209 134.52 18.0609 134.36 18.3209C134.2 18.6009 134.06 18.9009 133.98 19.2009C133.88 19.5409 133.84 19.9009 133.84 20.2409C133.84 20.5809 133.88 20.9409 133.98 21.2809C134.06 21.5809 134.2 21.8809 134.36 22.1609C134.52 22.4209 134.72 22.6609 134.94 22.8609C135.16 23.0609 135.42 23.2409 135.68 23.3809C135.96 23.5209 136.24 23.6409 136.56 23.7209C136.88 23.8009 137.2 23.8409 137.54 23.8209C137.86 23.8409 138.18 23.8009 138.52 23.7209ZM134.98 26.4009C134.44 26.2609 133.92 26.0609 133.44 25.7809C132.5 25.2609 131.72 24.4809 131.2 23.5409C130.92 23.0609 130.72 22.5409 130.58 22.0009C130.3 20.8409 130.3 19.6409 130.58 18.4809C130.72 17.9409 130.92 17.4209 131.2 16.9409C131.72 16.0009 132.5 15.2409 133.44 14.7009C133.92 14.4409 134.44 14.2209 134.98 14.0809C135.56 13.9409 136.14 13.8609 136.74 13.8609C137.06 13.8609 137.38 13.8809 137.7 13.9209C138 13.9609 138.28 14.0209 138.56 14.1009C138.82 14.1809 139.08 14.2609 139.32 14.3809C139.56 14.4809 139.78 14.6009 140 14.7409C140.2 14.8609 140.4 15.0209 140.56 15.1809C140.72 15.3409 140.88 15.5009 141 15.6809V14.2409H144.32V26.2809H141V24.8409C140.56 25.4009 139.98 25.8409 139.32 26.1409C138.94 26.3209 138.54 26.4409 138.12 26.5009C137.66 26.5809 137.18 26.6409 136.72 26.6209C136.14 26.6209 135.56 26.5609 134.98 26.4009ZM122.94 17.2809C123.42 17.2809 123.9 17.2409 124.36 17.1209C124.72 17.0209 125.06 16.8609 125.34 16.6209C125.6 16.4009 125.8 16.1209 125.92 15.8009C126.04 15.4409 126.12 15.0609 126.1 14.6809C126.1 14.3009 126.04 13.9209 125.92 13.5609C125.8 13.2409 125.6 12.9809 125.34 12.7609C125.06 12.5409 124.72 12.3609 124.36 12.2809C123.9 12.1609 123.42 12.1009 122.94 12.1209H119.68V17.2809H122.94ZM116.24 9.28093H123.28C124.26 9.26093 125.22 9.40093 126.14 9.68093C126.88 9.90093 127.56 10.3009 128.14 10.8009C128.66 11.2809 129.06 11.8609 129.32 12.5209C129.58 13.2209 129.72 13.9609 129.7 14.7009C129.7 15.4409 129.58 16.1809 129.32 16.8609C129.06 17.5209 128.66 18.1009 128.14 18.5809C127.56 19.1009 126.88 19.4809 126.14 19.7009C125.22 19.9809 124.24 20.1209 123.28 20.1009H119.7V26.2809H116.26L116.24 9.28093ZM101.5 14.2209H104.8V15.6609C105 15.3809 105.24 15.1209 105.52 14.9209C105.8 14.7009 106.12 14.5009 106.46 14.3609C106.82 14.2009 107.22 14.0809 107.62 14.0009C108.06 13.9209 108.5 13.8809 108.96 13.8809C109.66 13.8609 110.36 13.9809 111 14.2209C111.58 14.4409 112.12 14.7809 112.56 15.2209C113 15.6809 113.32 16.2409 113.52 16.8409C113.76 17.5409 113.86 18.2609 113.86 19.0009V26.2809H110.56V19.8609C110.56 19.4009 110.5 18.9209 110.36 18.4809C110.24 18.1209 110.06 17.7809 109.8 17.4809C109.56 17.2209 109.24 17.0009 108.9 16.8809C108.12 16.6209 107.26 16.6209 106.46 16.8809C106.12 17.0009 105.8 17.2209 105.56 17.4809C105.3 17.7809 105.12 18.1209 105 18.4809C104.86 18.9209 104.8 19.4009 104.8 19.8609V26.2809H101.52L101.5 14.2209ZM93.3797 23.6809C93.6997 23.6009 93.9997 23.5009 94.2797 23.3409C94.5597 23.2009 94.7997 23.0209 95.0197 22.8009C95.2397 22.5809 95.4197 22.3409 95.5797 22.0809C95.7397 21.8009 95.8597 21.5209 95.9197 21.2209C96.0797 20.5609 96.0797 19.8809 95.9197 19.2209C95.7797 18.6209 95.4597 18.0609 95.0197 17.6409C94.7997 17.4209 94.5397 17.2409 94.2797 17.1009C93.9997 16.9409 93.6797 16.8409 93.3797 16.7609C93.0397 16.6809 92.6797 16.6409 92.3397 16.6409C91.9997 16.6409 91.6397 16.6809 91.2997 16.7609C90.9797 16.8409 90.6797 16.9409 90.3997 17.1009C90.1197 17.2409 89.8797 17.4209 89.6597 17.6409C89.4397 17.8609 89.2597 18.1009 89.0997 18.3609C88.6197 19.2409 88.4997 20.2609 88.7597 21.2409C88.8397 21.5409 88.9597 21.8409 89.0997 22.1009C89.2397 22.3609 89.4397 22.6009 89.6597 22.8209C89.8797 23.0409 90.1197 23.2209 90.3997 23.3609C90.6797 23.5009 90.9797 23.6209 91.2997 23.7009C91.6397 23.7809 91.9797 23.8209 92.3397 23.8209C92.6997 23.8209 93.0397 23.7809 93.3797 23.6809ZM90.3997 26.4009C89.7997 26.2609 89.2197 26.0609 88.6797 25.7809C88.1597 25.5209 87.6997 25.2009 87.2597 24.8209C86.8397 24.4409 86.4797 24.0209 86.1997 23.5409C85.8997 23.0609 85.6797 22.5409 85.5197 22.0009C85.1997 20.8409 85.1997 19.6209 85.5197 18.4809C85.6797 17.9409 85.8997 17.4209 86.1997 16.9409C86.7997 15.9809 87.6597 15.2009 88.6797 14.7009C89.2197 14.4209 89.7997 14.2209 90.3997 14.0809C91.6797 13.7809 93.0197 13.7809 94.2997 14.0809C94.8997 14.2209 95.4597 14.4209 95.9997 14.7009C96.5197 14.9609 96.9797 15.2809 97.4197 15.6809C97.8397 16.0609 98.1997 16.4809 98.4997 16.9609C98.7997 17.4409 99.0397 17.9609 99.1797 18.5009C99.4997 19.6609 99.4997 20.8809 99.1797 22.0209C98.8797 23.1209 98.2597 24.1009 97.4197 24.8409C96.9997 25.2209 96.5197 25.5409 95.9997 25.8009C95.4597 26.0809 94.8797 26.2809 94.2997 26.4209C93.0197 26.7009 91.6797 26.7009 90.3997 26.4009ZM77.5597 23.6809C77.8797 23.6009 78.1797 23.5009 78.4597 23.3409C78.7397 23.2009 78.9797 23.0209 79.1997 22.8009C79.4197 22.5809 79.5997 22.3409 79.7597 22.0809C79.9197 21.8009 80.0397 21.5209 80.0997 21.2209C80.2597 20.5609 80.2597 19.8809 80.0997 19.2209C79.9597 18.6209 79.6397 18.0609 79.1997 17.6409C78.9797 17.4209 78.7197 17.2409 78.4597 17.1009C78.1797 16.9409 77.8597 16.8409 77.5597 16.7609C77.2197 16.6809 76.8597 16.6409 76.5197 16.6409C76.1797 16.6409 75.8197 16.6809 75.4797 16.7609C75.1597 16.8409 74.8597 16.9409 74.5797 17.1009C74.3197 17.2409 74.0597 17.4209 73.8397 17.6409C73.6197 17.8409 73.4397 18.1009 73.2797 18.3609C73.1397 18.6409 73.0197 18.9209 72.9397 19.2209C72.8597 19.5409 72.7997 19.8809 72.8197 20.2209C72.8197 20.5609 72.8597 20.9009 72.9397 21.2209C73.0197 21.5209 73.1397 21.8209 73.2797 22.0809C73.4197 22.3409 73.6197 22.5809 73.8397 22.8009C74.0597 23.0209 74.2997 23.2009 74.5797 23.3409C74.8597 23.4809 75.1597 23.6009 75.4797 23.6809C75.8197 23.7609 76.1597 23.8009 76.5197 23.8009C76.8597 23.8009 77.2197 23.7609 77.5597 23.6809ZM74.5597 26.4009C73.9597 26.2609 73.3797 26.0609 72.8397 25.7809C72.3197 25.5209 71.8597 25.2009 71.4197 24.8209C70.9997 24.4409 70.6397 24.0209 70.3597 23.5409C70.0597 23.0609 69.8397 22.5409 69.6797 22.0009C69.3597 20.8409 69.3597 19.6209 69.6797 18.4809C69.8397 17.9409 70.0597 17.4209 70.3597 16.9409C70.6597 16.4609 71.0197 16.0409 71.4197 15.6609C71.8397 15.2809 72.3197 14.9409 72.8397 14.6809C73.3797 14.4009 73.9597 14.2009 74.5597 14.0609C75.8397 13.7809 77.1797 13.7809 78.4597 14.0609C79.0597 14.2009 79.6197 14.4009 80.1597 14.6809C80.6797 14.9409 81.1397 15.2609 81.5797 15.6609C81.9997 16.0409 82.3597 16.4609 82.6597 16.9409C82.9597 17.4209 83.1997 17.9409 83.3397 18.4809C83.6597 19.6409 83.6597 20.8609 83.3397 22.0009C83.0397 23.1009 82.4197 24.0809 81.5797 24.8209C81.1597 25.2009 80.6797 25.5209 80.1597 25.7809C79.6197 26.0609 79.0397 26.2609 78.4597 26.4009C77.1997 26.7009 75.8597 26.7009 74.5597 26.4009ZM48.5597 9.28093H52.0397L57.9597 18.3409L63.9197 9.28093H67.3797V26.2809H63.9397V14.6209L59.0197 22.1409H56.9197L51.9997 14.6209V26.2809H48.5597V9.28093Z" fill="white"/>
</svg>
