<svg width="81" height="80" viewBox="0 0 81 80" fill="none" xmlns="http://www.w3.org/2000/svg">
<g filter="url(#filter0_b_2537_17260)">
<rect x="0.333252" width="80" height="80" rx="40" fill="#62CEFF" fill-opacity="0.1"/>
<path d="M35.8928 61.5H24.7927C20.4127 61.5 18.8528 59.96 18.8528 55.6V47.4C18.8528 43.04 20.4127 41.5 24.7927 41.5H35.8928C40.2728 41.5 41.8328 43.04 41.8328 47.4V55.62C41.8328 59.96 40.2728 61.5 35.8928 61.5ZM24.7727 44.5C22.0527 44.5 21.8328 44.72 21.8328 47.4V55.62C21.8328 58.3 22.0527 58.52 24.7727 58.52H35.8728C38.5928 58.52 38.8127 58.3 38.8127 55.62V47.4C38.8127 44.72 38.5928 44.5 35.8728 44.5H24.7727Z" fill="#DAA15D"/>
<path d="M46.3337 61.5005C45.7937 61.5005 45.2936 61.2005 45.0336 60.7405C44.7736 60.2605 44.7736 59.7005 45.0536 59.2205L47.1536 55.7205C47.5736 55.0205 48.4937 54.7805 49.2137 55.2005C49.9337 55.6205 50.1537 56.5405 49.7337 57.2605L49.1937 58.1605C54.7137 56.8605 58.8537 51.9005 58.8537 45.9805C58.8537 45.1605 59.5337 44.4805 60.3537 44.4805C61.1737 44.4805 61.8537 45.1605 61.8537 45.9805C61.8337 54.5405 54.8737 61.5005 46.3337 61.5005Z" fill="#DAA15D"/>
<path d="M20.3333 35.5C19.5133 35.5 18.8333 34.82 18.8333 34C18.8333 25.46 25.7933 18.5 34.3333 18.5C34.8733 18.5 35.3733 18.8 35.6333 19.26C35.8933 19.74 35.8933 20.3 35.6133 20.78L33.5133 24.28C33.0933 24.98 32.1732 25.22 31.4532 24.8C30.7332 24.38 30.5132 23.46 30.9332 22.74L31.4733 21.84C25.9533 23.14 21.8132 28.1 21.8132 34.02C21.8332 34.82 21.1533 35.5 20.3333 35.5Z" fill="#DAA15D"/>
<path d="M53.3333 39.5C47.5533 39.5 42.8333 34.8 42.8333 29C42.8333 23.2 47.5333 18.5 53.3333 18.5C59.1333 18.5 63.8333 23.2 63.8333 29C63.8333 34.8 59.1133 39.5 53.3333 39.5ZM53.3333 21.5C49.1933 21.5 45.8333 24.86 45.8333 29C45.8333 33.14 49.1933 36.5 53.3333 36.5C57.4733 36.5 60.8333 33.14 60.8333 29C60.8333 24.86 57.4733 21.5 53.3333 21.5Z" fill="#DAA15D"/>
</g>
<defs>
<filter id="filter0_b_2537_17260" x="-19.6667" y="-20" width="120" height="120" filterUnits="userSpaceOnUse" color-interpolation-filters="sRGB">
<feFlood flood-opacity="0" result="BackgroundImageFix"/>
<feGaussianBlur in="BackgroundImageFix" stdDeviation="10"/>
<feComposite in2="SourceAlpha" operator="in" result="effect1_backgroundBlur_2537_17260"/>
<feBlend mode="normal" in="SourceGraphic" in2="effect1_backgroundBlur_2537_17260" result="shape"/>
</filter>
</defs>
</svg>
