<svg width="81" height="80" viewBox="0 0 81 80" fill="none" xmlns="http://www.w3.org/2000/svg">
<g filter="url(#filter0_b_2487_13183)">
<rect x="0.333252" width="80" height="80" rx="40" fill="#62CEFF" fill-opacity="0.1"/>
<path d="M54.3333 49.5C53.5133 49.5 52.8333 48.82 52.8333 48V29C52.8333 27.62 51.7133 26.5 50.3333 26.5H39.3333C38.5133 26.5 37.8333 25.82 37.8333 25C37.8333 24.18 38.5133 23.5 39.3333 23.5H50.3333C53.3733 23.5 55.8333 25.96 55.8333 29V48C55.8333 48.82 55.1533 49.5 54.3333 49.5Z" fill="#DAA15D"/>
<path d="M44.3333 31.4999C43.9933 31.4999 43.6532 31.3799 43.3732 31.1599L37.3732 26.1599C37.0332 25.8799 36.8333 25.4599 36.8333 24.9999C36.8333 24.5399 37.0332 24.1398 37.3732 23.8398L43.3732 18.8398C44.0132 18.2998 44.9532 18.3999 45.4932 19.0399C46.0332 19.6799 45.9333 20.6199 45.2933 21.1599L40.6733 24.9999L45.2933 28.8398C45.9333 29.3798 46.0132 30.3198 45.4932 30.9598C45.1932 31.3198 44.7533 31.4999 44.3333 31.4999Z" fill="#DAA15D"/>
<path d="M54.3333 61.5C50.1933 61.5 46.8333 58.14 46.8333 54C46.8333 49.86 50.1933 46.5 54.3333 46.5C58.4733 46.5 61.8333 49.86 61.8333 54C61.8333 58.14 58.4733 61.5 54.3333 61.5ZM54.3333 49.5C51.8533 49.5 49.8333 51.52 49.8333 54C49.8333 56.48 51.8533 58.5 54.3333 58.5C56.8133 58.5 58.8333 56.48 58.8333 54C58.8333 51.52 56.8133 49.5 54.3333 49.5Z" fill="#DAA15D"/>
<path d="M41.3333 56.5H30.3333C27.2933 56.5 24.8333 54.04 24.8333 51V32C24.8333 31.18 25.5133 30.5 26.3333 30.5C27.1533 30.5 27.8333 31.18 27.8333 32V51C27.8333 52.38 28.9533 53.5 30.3333 53.5H41.3333C42.1533 53.5 42.8333 54.18 42.8333 55C42.8333 55.82 42.1533 56.5 41.3333 56.5Z" fill="#DAA15D"/>
<path d="M36.3331 61.5C35.9131 61.5 35.4731 61.32 35.1731 60.96C34.6331 60.32 34.7331 59.38 35.3731 58.84L39.9931 55L35.3731 51.16C34.7331 50.62 34.6531 49.68 35.1731 49.04C35.7131 48.4 36.6531 48.32 37.2931 48.84L43.2931 53.84C43.6331 54.12 43.8331 54.54 43.8331 55C43.8331 55.46 43.6331 55.86 43.2931 56.16L37.2931 61.16C37.0131 61.38 36.6731 61.5 36.3331 61.5Z" fill="#DAA15D"/>
<path d="M26.3333 33.5C22.1933 33.5 18.8333 30.14 18.8333 26C18.8333 21.86 22.1933 18.5 26.3333 18.5C30.4733 18.5 33.8333 21.86 33.8333 26C33.8333 30.14 30.4733 33.5 26.3333 33.5ZM26.3333 21.5C23.8533 21.5 21.8333 23.52 21.8333 26C21.8333 28.48 23.8533 30.5 26.3333 30.5C28.8133 30.5 30.8333 28.48 30.8333 26C30.8333 23.52 28.8133 21.5 26.3333 21.5Z" fill="#DAA15D"/>
</g>
<defs>
<filter id="filter0_b_2487_13183" x="-19.6667" y="-20" width="120" height="120" filterUnits="userSpaceOnUse" color-interpolation-filters="sRGB">
<feFlood flood-opacity="0" result="BackgroundImageFix"/>
<feGaussianBlur in="BackgroundImageFix" stdDeviation="10"/>
<feComposite in2="SourceAlpha" operator="in" result="effect1_backgroundBlur_2487_13183"/>
<feBlend mode="normal" in="SourceGraphic" in2="effect1_backgroundBlur_2487_13183" result="shape"/>
</filter>
</defs>
</svg>
