<svg width="64" height="64" viewBox="0 0 64 64" fill="none" xmlns="http://www.w3.org/2000/svg">
<g filter="url(#filter0_b_2641_6569)">
<rect width="64" height="64" rx="32" fill="#62CEFF" fill-opacity="0.1"/>
<path d="M26.3191 31.24C26.2591 31.24 26.2191 31.24 26.1591 31.24C26.0591 31.22 25.9191 31.22 25.7991 31.24C19.9991 31.06 15.6191 26.5 15.6191 20.88C15.6191 15.16 20.2791 10.5 25.9991 10.5C31.7191 10.5 36.3791 15.16 36.3791 20.88C36.3591 26.5 31.9591 31.06 26.3791 31.24C26.3591 31.24 26.3391 31.24 26.3191 31.24ZM25.9991 13.5C21.9391 13.5 18.6191 16.82 18.6191 20.88C18.6191 24.88 21.7391 28.1 25.7191 28.24C25.8391 28.22 26.0991 28.22 26.3591 28.24C30.2791 28.06 33.3591 24.84 33.3791 20.88C33.3791 16.82 30.0591 13.5 25.9991 13.5Z" fill="#DAA15D"/>
<path d="M41.0792 31.5C41.0192 31.5 40.9592 31.5 40.8992 31.48C40.0792 31.56 39.2392 30.98 39.1592 30.16C39.0792 29.34 39.5792 28.6 40.3992 28.5C40.6392 28.48 40.8992 28.48 41.1192 28.48C44.0392 28.32 46.3192 25.92 46.3192 22.98C46.3192 19.94 43.8592 17.48 40.8192 17.48C39.9992 17.5 39.3192 16.82 39.3192 16C39.3192 15.18 39.9992 14.5 40.8192 14.5C45.4992 14.5 49.3192 18.32 49.3192 23C49.3192 27.6 45.7192 31.32 41.1392 31.5C41.1192 31.5 41.0992 31.5 41.0792 31.5Z" fill="#DAA15D"/>
<path d="M26.3392 53.1C22.4192 53.1 18.4792 52.1 15.4992 50.1C12.7192 48.26 11.1992 45.74 11.1992 43C11.1992 40.26 12.7192 37.72 15.4992 35.86C21.4992 31.88 31.2192 31.88 37.1792 35.86C39.9392 37.7 41.4792 40.22 41.4792 42.96C41.4792 45.7 39.9592 48.24 37.1792 50.1C34.1792 52.1 30.2592 53.1 26.3392 53.1ZM17.1592 38.38C15.2392 39.66 14.1992 41.3 14.1992 43.02C14.1992 44.72 15.2592 46.36 17.1592 47.62C22.1392 50.96 30.5392 50.96 35.5192 47.62C37.4392 46.34 38.4792 44.7 38.4792 42.98C38.4792 41.28 37.4192 39.64 35.5192 38.38C30.5392 35.06 22.1392 35.06 17.1592 38.38Z" fill="#DAA15D"/>
<path d="M44.6791 49.5C43.9791 49.5 43.3591 49.02 43.2191 48.3C43.0591 47.48 43.5791 46.7 44.3791 46.52C45.6391 46.26 46.7991 45.76 47.6991 45.06C48.8391 44.2 49.4591 43.12 49.4591 41.98C49.4591 40.84 48.8391 39.76 47.7191 38.92C46.8391 38.24 45.7391 37.76 44.4391 37.46C43.6391 37.28 43.1191 36.48 43.2991 35.66C43.4791 34.86 44.2791 34.34 45.0991 34.52C46.8191 34.9 48.3191 35.58 49.5391 36.52C51.3991 37.92 52.4591 39.9 52.4591 41.98C52.4591 44.06 51.3791 46.04 49.5191 47.46C48.2791 48.42 46.7191 49.12 44.9991 49.46C44.8791 49.5 44.7791 49.5 44.6791 49.5Z" fill="#DAA15D"/>
</g>
<defs>
<filter id="filter0_b_2641_6569" x="-20" y="-20" width="104" height="104" filterUnits="userSpaceOnUse" color-interpolation-filters="sRGB">
<feFlood flood-opacity="0" result="BackgroundImageFix"/>
<feGaussianBlur in="BackgroundImageFix" stdDeviation="10"/>
<feComposite in2="SourceAlpha" operator="in" result="effect1_backgroundBlur_2641_6569"/>
<feBlend mode="normal" in="SourceGraphic" in2="effect1_backgroundBlur_2641_6569" result="shape"/>
</filter>
</defs>
</svg>
