<svg width="112" height="112" viewBox="0 0 112 112" fill="none" xmlns="http://www.w3.org/2000/svg">
<g filter="url(#filter0_b_2774_30885)">
<rect width="112" height="112" rx="56" fill="#62CEFF" fill-opacity="0.1"/>
<path opacity="0.4" d="M77.6667 39.44C77.6667 37.54 76.1267 36 74.225 36H66.47L52.27 50.2C51.1333 51.3383 51.1333 53.1867 52.27 54.3233L59.3417 61.395C60.4817 62.535 62.3267 62.535 63.4667 61.395L77.6667 47.1983V39.44Z" fill="#35AF69"/>
<path opacity="0.3" d="M77.6667 39.44C77.6667 37.54 76.1267 36 74.225 36H64.7033L51.3867 49.3167C49.7633 50.9417 49.7633 53.5833 51.3883 55.2083L58.46 62.28C60.0883 63.9083 62.725 63.91 64.3533 62.28L77.6667 48.9667V39.44Z" fill="#35AF69"/>
<path opacity="0.2" d="M77.6667 39.44C77.6667 37.54 76.1267 36 74.225 36H62.935L50.5017 48.4333C48.3917 50.545 48.3917 53.98 50.5033 56.0917L57.5733 63.1617C59.69 65.28 63.1167 65.2817 65.235 63.1633L77.6667 50.7333V39.44Z" fill="#35AF69"/>
<path opacity="0.1" d="M77.6667 39.44C77.6667 37.54 76.1267 36 74.225 36H61.1667L49.6167 47.55C47.0217 50.1483 47.0217 54.3767 49.6183 56.975L56.6883 64.045C59.2933 66.6517 63.5117 66.655 66.1183 64.0467L77.6667 52.5017V39.44Z" fill="#35AF69"/>
<path d="M88.3883 23.6433H68.9733C67.515 23.6433 66.7867 25.405 67.8167 26.4366L72.81 31.43L53.155 51.0833C52.5033 51.735 52.5033 52.79 53.155 53.44L60.2267 60.5116C60.8783 61.1633 61.9333 61.1633 62.5833 60.5116L82.2383 40.8583L87.23 45.85C88.26 46.88 90.0233 46.15 90.0233 44.6933V25.2783C90.0233 24.375 89.2917 23.6433 88.3883 23.6433Z" fill="url(#paint0_linear_2774_30885)"/>
<path opacity="0.4" d="M53.155 51.0833C52.5033 51.735 52.5033 52.79 53.155 53.44L60.2267 60.5117C60.8783 61.1633 61.9333 61.1633 62.5833 60.5117L78.3317 44.7633V39.4183C78.3317 37.1617 76.5017 35.3317 74.245 35.3317H68.9033L53.155 51.0833Z" fill="#35AF69"/>
<path opacity="0.3" d="M53.155 51.0834C52.5033 51.735 52.5033 52.79 53.155 53.44L60.2267 60.5117C60.8783 61.1634 61.9333 61.1634 62.5833 60.5117L78.9983 44.0967V39.3967C78.9983 36.7834 76.88 34.665 74.2667 34.665H69.57L53.155 51.0834Z" fill="#35AF69"/>
<path opacity="0.2" d="M53.155 51.0833C52.5033 51.735 52.5033 52.79 53.155 53.44L60.2267 60.5116C60.8783 61.1633 61.9333 61.1633 62.5833 60.5116L79.6667 43.43V39.375C79.6667 36.405 77.26 33.9983 74.29 33.9983H70.2383L53.155 51.0833Z" fill="#35AF69"/>
<path opacity="0.1" d="M53.155 51.0834C52.5033 51.735 52.5033 52.79 53.155 53.44L60.2267 60.5117C60.8783 61.1634 61.9333 61.1634 62.5833 60.5117L80.3333 42.7634V39.355C80.3333 36.03 77.6367 33.3334 74.3117 33.3334H70.905L53.155 51.0834Z" fill="#35AF69"/>
<path opacity="0.05" d="M53.155 51.0833C52.5033 51.735 52.5033 52.79 53.155 53.44L60.2267 60.5116C60.8783 61.1633 61.9333 61.1633 62.5833 60.5116L81 42.0966V39.3333C81 35.6516 78.015 32.6666 74.3333 32.6666H71.5717L53.155 51.0833Z" fill="#35AF69"/>
<path d="M27.775 36H74.2267C76.1267 36 77.6667 37.54 77.6667 39.4417V85.8933C77.6667 87.7933 76.1267 89.3333 74.225 89.3333H27.775C25.8733 89.3333 24.3333 87.7933 24.3333 85.8917V39.4417C24.3333 37.54 25.8733 36 27.775 36Z" fill="url(#paint1_linear_2774_30885)"/>
<path d="M74.225 36.8333C75.6633 36.8333 76.8333 38.0033 76.8333 39.4417V85.8933C76.8333 87.3317 75.6633 88.5017 74.225 88.5017H27.775C26.3367 88.5017 25.1667 87.3317 25.1667 85.8933V39.4417C25.1667 38.0033 26.3367 36.8333 27.775 36.8333H74.225ZM74.225 36H27.775C25.8733 36 24.3333 37.54 24.3333 39.4417V85.8933C24.3333 87.7933 25.8733 89.3333 27.775 89.3333H74.2267C76.1267 89.3333 77.6667 87.7933 77.6667 85.8917V39.4417C77.6667 37.54 76.1267 36 74.225 36Z" fill="url(#paint2_linear_2774_30885)"/>
</g>
<defs>
<filter id="filter0_b_2774_30885" x="-20" y="-20" width="152" height="152" filterUnits="userSpaceOnUse" color-interpolation-filters="sRGB">
<feFlood flood-opacity="0" result="BackgroundImageFix"/>
<feGaussianBlur in="BackgroundImageFix" stdDeviation="10"/>
<feComposite in2="SourceAlpha" operator="in" result="effect1_backgroundBlur_2774_30885"/>
<feBlend mode="normal" in="SourceGraphic" in2="effect1_backgroundBlur_2774_30885" result="shape"/>
</filter>
<linearGradient id="paint0_linear_2774_30885" x1="61.52" y1="52.1466" x2="88.4683" y2="25.1983" gradientUnits="userSpaceOnUse">
<stop offset="0.01" stop-color="#78E837"/>
<stop offset="0.246" stop-color="#5BDD46"/>
<stop offset="1" stop-color="#00BC73"/>
</linearGradient>
<linearGradient id="paint1_linear_2774_30885" x1="25.3417" y1="88.325" x2="76.6583" y2="37.0083" gradientUnits="userSpaceOnUse">
<stop stop-color="#01FFF7" stop-opacity="0.3"/>
<stop offset="1" stop-color="#01FFF7" stop-opacity="0.4"/>
</linearGradient>
<linearGradient id="paint2_linear_2774_30885" x1="61.0067" y1="52.66" x2="9.68833" y2="103.978" gradientUnits="userSpaceOnUse">
<stop stop-color="white" stop-opacity="0.2"/>
<stop offset="1" stop-color="#278EFF" stop-opacity="0.2"/>
</linearGradient>
</defs>
</svg>
