<svg width="80" height="80" viewBox="0 0 80 80" fill="none" xmlns="http://www.w3.org/2000/svg">
<g filter="url(#filter0_b_2537_16372)">
<rect width="80" height="80" rx="40" fill="#62CEFF" fill-opacity="0.1"/>
<path d="M37.1195 61.4199C34.9595 61.4199 32.7795 60.7999 31.0995 59.5399L22.5396 53.14C20.2796 51.46 18.5195 47.92 18.5195 45.08V30.26C18.5195 27.2 20.7596 23.9399 23.6396 22.8599L33.5995 19.1199C35.5795 18.3799 38.6795 18.3799 40.6595 19.1199L50.5995 22.8599C52.9395 23.7399 54.9195 26.0799 55.5595 28.6799C55.6595 29.1199 55.5595 29.6 55.2795 29.96C54.9995 30.32 54.5595 30.5399 54.0995 30.5399L38.2795 30.5599C35.7395 30.7199 35.1195 31.14 35.1195 34.84V45.7C35.1195 49.52 35.6195 49.9999 39.4995 49.9999H51.3395C51.9595 49.9999 52.5195 50.38 52.7395 50.96C52.9595 51.54 52.7995 52.1999 52.3395 52.6199C52.1195 52.7999 51.9395 52.98 51.7195 53.14L43.1595 59.5599C41.4395 60.7999 39.2795 61.4199 37.1195 61.4199ZM37.1195 21.58C36.2195 21.58 35.2996 21.7 34.6396 21.96L24.6795 25.7C22.9995 26.34 21.4995 28.4799 21.4995 30.2999V45.1199C21.4995 46.9999 22.8195 49.64 24.3195 50.76L32.8795 57.1599C35.1795 58.8599 39.0395 58.8599 41.3395 57.1599L46.8795 53.02H39.4796C33.9596 53.02 32.0995 51.1799 32.0995 45.7199V34.8599C32.0995 30.5999 33.1195 27.9 38.1795 27.58L39.4796 27.5599H51.7795C51.1795 26.6999 50.3796 26.02 49.5396 25.7L39.5995 21.96C38.9195 21.7 38.0195 21.58 37.1195 21.58Z" fill="#DAA15D"/>
<path d="M59.9996 39.9399H33.5996C32.7796 39.9399 32.0996 39.2599 32.0996 38.4399C32.0996 37.6199 32.7796 36.9399 33.5996 36.9399H59.9996C60.8196 36.9399 61.4996 37.6199 61.4996 38.4399C61.4996 39.2599 60.8196 39.9399 59.9996 39.9399Z" fill="#DAA15D"/>
<path d="M54.1196 52.9999H39.4796C33.9596 52.9999 32.0996 51.16 32.0996 45.7V34.84C32.0996 30.58 33.1196 27.8799 38.1796 27.5599L39.4796 27.5399H54.1196C59.6396 27.5399 61.4996 29.38 61.4996 34.84V45.9399C61.4596 51.2199 59.5996 52.9999 54.1196 52.9999ZM39.4796 30.5399L38.2596 30.5599C35.7196 30.7199 35.0996 31.14 35.0996 34.84V45.7C35.0996 49.52 35.5996 49.9999 39.4796 49.9999H54.1196C57.9396 49.9999 58.4596 49.4999 58.4996 45.9399V34.8599C58.4996 31.0399 57.9996 30.5599 54.1196 30.5599H39.4796V30.5399Z" fill="#DAA15D"/>
<path d="M41.3001 48.02H38.6201C37.8001 48.02 37.1201 47.34 37.1201 46.52C37.1201 45.7 37.8001 45.02 38.6201 45.02H41.3001C42.1201 45.02 42.8001 45.7 42.8001 46.52C42.8001 47.34 42.1401 48.02 41.3001 48.02Z" fill="#DAA15D"/>
<path d="M52.04 48.02H45.5C44.68 48.02 44 47.34 44 46.52C44 45.7 44.68 45.02 45.5 45.02H52.04C52.86 45.02 53.54 45.7 53.54 46.52C53.54 47.34 52.88 48.02 52.04 48.02Z" fill="#DAA15D"/>
</g>
<defs>
<filter id="filter0_b_2537_16372" x="-20" y="-20" width="120" height="120" filterUnits="userSpaceOnUse" color-interpolation-filters="sRGB">
<feFlood flood-opacity="0" result="BackgroundImageFix"/>
<feGaussianBlur in="BackgroundImageFix" stdDeviation="10"/>
<feComposite in2="SourceAlpha" operator="in" result="effect1_backgroundBlur_2537_16372"/>
<feBlend mode="normal" in="SourceGraphic" in2="effect1_backgroundBlur_2537_16372" result="shape"/>
</filter>
</defs>
</svg>
