<svg width="126" height="40" viewBox="0 0 126 40" fill="none" xmlns="http://www.w3.org/2000/svg">
<g clip-path="url(#clip0_2774_30942)">
<path d="M20 40C31.0457 40 40 31.0457 40 20C40 8.95431 31.0457 0 20 0C8.9543 0 0 8.95431 0 20C0 31.0457 8.9543 40 20 40Z" fill="white"/>
<path d="M32.6288 18.7774L26.9797 13.1284L26.9695 13.1181L26.9471 13.0986C26.9106 13.0655 26.8723 13.0344 26.8325 13.0054C26.8046 12.983 26.7766 12.9616 26.7468 12.942C26.7337 12.9327 26.7207 12.9252 26.7067 12.9168C26.3847 12.7059 25.9951 12.6238 25.6153 12.6868C25.2355 12.7498 24.8933 12.9534 24.6566 13.257L15.8708 22.0437V14.2159C15.8708 13.8044 15.7073 13.4097 15.4164 13.1188C15.1254 12.8278 14.7307 12.6643 14.3192 12.6643C13.9077 12.6643 13.5131 12.8278 13.2221 13.1188C12.9311 13.4097 12.7677 13.8044 12.7677 14.2159V22.0437L9.56012 18.8361C9.26693 18.5566 8.87603 18.4028 8.47094 18.4076C8.06585 18.4124 7.67871 18.5755 7.39225 18.8619C7.10579 19.1484 6.94273 19.5355 6.93791 19.9406C6.9331 20.3457 7.08691 20.7366 7.36648 21.0298L13.2224 26.8857C13.2592 26.923 13.2981 26.9582 13.3389 26.991C13.378 27.0227 13.419 27.0535 13.46 27.0842C13.6716 27.2213 13.9134 27.3048 14.1645 27.3274H14.1711C14.2214 27.3321 14.2717 27.3349 14.322 27.3349H14.3453C14.3876 27.3349 14.4295 27.333 14.4711 27.3293H14.5019C14.542 27.3246 14.582 27.32 14.6212 27.3116H14.6389C14.6827 27.3023 14.7265 27.292 14.7693 27.279H14.7768C14.8236 27.2649 14.8696 27.2484 14.9147 27.2296C14.979 27.203 15.0413 27.1719 15.1011 27.1364L15.1365 27.1159C15.1951 27.0801 15.2511 27.0402 15.3042 26.9966L15.3201 26.9826C15.3527 26.9547 15.3853 26.9267 15.4133 26.895L24.322 17.9807V25.7842C24.322 26.1957 24.4855 26.5904 24.7765 26.8814C25.0674 27.1724 25.4621 27.3358 25.8736 27.3358C26.2851 27.3358 26.6798 27.1724 26.9707 26.8814C27.2617 26.5904 27.4252 26.1957 27.4252 25.7842V17.9565L30.4352 20.972C30.7273 21.2572 31.1202 21.4158 31.5285 21.4133C31.9368 21.4108 32.3277 21.2474 32.6163 20.9586C32.905 20.6698 33.0682 20.2789 33.0705 19.8706C33.0729 19.4623 32.9141 19.0695 32.6288 18.7774Z" fill="#011724"/>
<path d="M46.9872 15.3313H51.5907V27.3563H54.3481V15.3313H58.9516V12.7556H46.9872V15.3313Z" fill="white"/>
<path d="M64.994 16.3807C64.6675 16.4033 64.3445 16.4611 64.0304 16.5531C63.728 16.6411 63.4384 16.7686 63.1693 16.9323C62.8309 17.1299 62.5345 17.3921 62.2971 17.7039C62.1851 17.852 62.0836 18.0077 61.9933 18.1699V16.4058H59.5602V27.3563H62.3428V21.7595C62.3354 21.3754 62.3918 20.9928 62.5096 20.6272C62.6163 20.3037 62.7897 20.0061 63.0186 19.7538C63.2475 19.5014 63.5268 19.3 63.8384 19.1623C64.1809 19.002 64.5504 18.9072 64.9278 18.8828C65.284 18.8475 65.6437 18.8791 65.9883 18.976V16.4058C65.6585 16.3649 65.3254 16.3565 64.994 16.3807Z" fill="white"/>
<path d="M76.4514 18.0888C76.0927 17.383 75.4861 16.8345 74.7479 16.5484C73.9981 16.2502 73.1395 16.1011 72.1722 16.1011C70.8545 16.1011 69.8136 16.3853 69.0495 16.9537C68.3008 17.4994 67.7523 18.2761 67.4886 19.1642L69.9823 19.9544C70.1587 19.4537 70.4663 19.1058 70.9049 18.9107C71.3017 18.724 71.7337 18.6236 72.1722 18.6162C72.9028 18.6162 73.4234 18.7684 73.7341 19.0728C73.9773 19.3105 74.1226 19.6581 74.1748 20.1072C73.7089 20.1771 73.2663 20.2433 72.8516 20.3039C72.1427 20.4088 71.5075 20.5188 70.9459 20.6337C70.4536 20.7302 69.969 20.8622 69.4959 21.0289C68.9796 21.2051 68.5026 21.4801 68.0915 21.8387C67.7545 22.1433 67.4954 22.5241 67.3358 22.9495C67.1763 23.3948 67.0974 23.865 67.1028 24.338C67.0963 24.9211 67.2415 25.4959 67.524 26.006C67.8119 26.5198 68.2411 26.9402 68.7606 27.2175C69.3048 27.5188 69.9689 27.6691 70.753 27.6685C71.6998 27.6685 72.4822 27.5045 73.1004 27.1765C73.6313 26.8805 74.1009 26.4861 74.4842 26.0144V27.3647H76.8978V20.6636C76.8999 20.2102 76.8794 19.7571 76.8363 19.3058C76.7894 18.8787 76.6586 18.4651 76.4514 18.0888ZM73.8757 24.0304C73.762 24.2409 73.6207 24.4352 73.4554 24.6082C73.2181 24.8616 72.9363 25.0694 72.6242 25.2214C72.224 25.412 71.784 25.5041 71.341 25.4898C71.0607 25.4967 70.7818 25.4486 70.52 25.3481C70.3063 25.2665 70.1213 25.1239 69.9879 24.9381C69.8598 24.7483 69.7946 24.523 69.8015 24.2942C69.7992 24.1215 69.8396 23.9509 69.9189 23.7975C70.0083 23.6351 70.1328 23.4946 70.2833 23.3865C70.4847 23.2422 70.704 23.1248 70.9356 23.0371C71.2041 22.9395 71.4783 22.8583 71.7566 22.7938C72.0672 22.7193 72.4763 22.6363 72.9839 22.545C73.3072 22.4872 73.7024 22.4183 74.1534 22.3419C74.1478 22.5366 74.1394 22.7463 74.1245 22.9942C74.1096 23.3525 74.0251 23.7045 73.8757 24.0304Z" fill="white"/>
<path d="M89.5201 19.0168C89.3856 18.5182 89.1682 18.0456 88.8771 17.619C88.5526 17.1531 88.1191 16.7737 87.6144 16.5138C87.0739 16.2237 86.3744 16.0786 85.5158 16.0786C84.441 16.0786 83.5505 16.3116 82.8441 16.7775C82.5201 16.9916 82.2254 17.2469 81.9672 17.537V16.4057H79.5135V27.3562H82.3092V21.8004C82.3092 21.117 82.385 20.5693 82.5366 20.1575C82.6881 19.7456 82.8838 19.4331 83.1237 19.22C83.3397 19.0184 83.6002 18.8706 83.8841 18.7885C84.1314 18.7173 84.3871 18.6797 84.6445 18.6767C85.2322 18.6767 85.6866 18.8087 86.0078 19.0727C86.3253 19.3305 86.5659 19.6706 86.703 20.0559C86.8416 20.4326 86.9269 20.8269 86.9565 21.2272C86.9838 21.6155 86.9972 21.9349 86.9965 22.1852V27.3562H89.7922V21.2114C89.7922 21.025 89.7791 20.7389 89.7521 20.3392C89.717 19.892 89.6393 19.4492 89.5201 19.0168Z" fill="white"/>
<path d="M99.8472 21.559C99.3427 21.2732 98.6752 21.0216 97.8445 20.8042C96.9928 20.588 96.3591 20.4122 95.9435 20.2768C95.5279 20.1413 95.2542 20.0096 95.1225 19.8816C95.058 19.8204 95.0069 19.7463 94.9728 19.6641C94.9386 19.5819 94.922 19.4935 94.924 19.4045C94.924 19.0867 95.0778 18.8454 95.3853 18.6749C95.6928 18.5043 96.101 18.4391 96.607 18.4726C97.1276 18.513 97.5401 18.6516 97.8445 18.8883C97.9942 19.0038 98.1182 19.1491 98.209 19.3149C98.2998 19.4807 98.3553 19.6635 98.372 19.8518L101.191 19.3439C101.108 18.7092 100.846 18.1112 100.435 17.62C100.002 17.1165 99.4491 16.7298 98.8277 16.4952C98.0993 16.2195 97.3251 16.0851 96.5464 16.0991C95.6612 16.0991 94.8924 16.2395 94.24 16.5203C93.6301 16.7668 93.1033 17.1826 92.722 17.7187C92.3574 18.2583 92.1699 18.898 92.1852 19.549C92.1703 20.0504 92.2928 20.5463 92.5394 20.9831C92.7761 21.3795 93.1615 21.7193 93.6958 22.0026C94.2301 22.2859 94.9445 22.5428 95.8391 22.7733C96.6294 22.9832 97.2121 23.1522 97.5873 23.2802C97.9601 23.4088 98.2043 23.5383 98.3124 23.6707C98.4263 23.82 98.4837 24.0049 98.4745 24.1925C98.4807 24.3502 98.4468 24.5069 98.3759 24.6479C98.305 24.7889 98.1994 24.9095 98.0691 24.9986C97.797 25.1906 97.4125 25.2865 96.9155 25.2865C96.3066 25.2865 95.8047 25.1412 95.4095 24.8504C95.0116 24.5568 94.7386 24.1244 94.6445 23.639L91.8218 24.0751C92.0045 25.2176 92.5198 26.1016 93.3678 26.7272C94.2158 27.3528 95.3294 27.6653 96.7086 27.6647C98.1418 27.6647 99.2638 27.3435 100.075 26.7011C100.885 26.0588 101.292 25.1753 101.295 24.0509C101.31 23.5438 101.191 23.0418 100.951 22.5953C100.719 22.1939 100.351 21.8485 99.8472 21.559Z" fill="white"/>
<path d="M112.263 18.0888C111.904 17.3832 111.297 16.8347 110.559 16.5484C109.809 16.2502 108.95 16.1011 107.983 16.1011C106.666 16.1011 105.625 16.3853 104.861 16.9537C104.112 17.4996 103.563 18.2762 103.299 19.1642L105.794 19.9544C105.97 19.4537 106.278 19.1058 106.716 18.9107C107.113 18.724 107.545 18.6236 107.983 18.6162C108.714 18.6162 109.235 18.7684 109.545 19.0728C109.789 19.3105 109.933 19.6581 109.986 20.1072C109.52 20.1771 109.077 20.2433 108.663 20.3039C107.954 20.4088 107.319 20.5188 106.757 20.6337C106.265 20.7302 105.78 20.8622 105.307 21.0289C104.719 21.2463 104.251 21.515 103.903 21.8349C103.566 22.1395 103.307 22.5204 103.147 22.9457C102.987 23.3909 102.908 23.8612 102.914 24.3342C102.908 24.9174 103.053 25.4921 103.335 26.0023C103.623 26.5162 104.052 26.9367 104.572 27.2137C105.116 27.515 105.78 27.6654 106.564 27.6648C107.511 27.6648 108.293 27.5008 108.912 27.1727C109.443 26.8768 109.912 26.4824 110.295 26.0107V27.361H112.709V20.6636C112.711 20.2102 112.691 19.7571 112.648 19.3058C112.601 18.8787 112.47 18.4651 112.263 18.0888ZM109.687 24.0304C109.573 24.2409 109.432 24.4352 109.267 24.6082C109.029 24.8616 108.748 25.0694 108.435 25.2214C108.035 25.412 107.595 25.5041 107.152 25.4898C106.872 25.4967 106.593 25.4486 106.331 25.3481C106.118 25.2665 105.933 25.1239 105.799 24.9381C105.671 24.7483 105.606 24.523 105.613 24.2942C105.61 24.1215 105.651 23.9509 105.73 23.7975C105.819 23.6348 105.944 23.4944 106.095 23.3865C106.296 23.2422 106.515 23.1248 106.747 23.0371C107.015 22.9394 107.29 22.8582 107.568 22.7938C107.878 22.7193 108.288 22.6363 108.795 22.545C109.118 22.4872 109.514 22.4183 109.965 22.3419C109.959 22.5366 109.95 22.7463 109.936 22.9942C109.92 23.3524 109.836 23.7042 109.687 24.0304Z" fill="white"/>
<path d="M121.307 21.8806L125.26 16.4058H121.854L118.143 21.6784V12.7556H115.344L115.324 27.3563H118.143V22.0837L121.935 27.3563H125.524L121.307 21.8806Z" fill="white"/>
</g>
<defs>
<clipPath id="clip0_2774_30942">
<rect width="125.524" height="40" fill="white"/>
</clipPath>
</defs>
</svg>
